M48
;Layer_Color=9474304
;FILE_FORMAT=2:4
INCH,TZ
;TYPE=PLATED
T01F00S00C0.0118
T02F00S00C0.0157
T04F00S00C0.0400
T05F00S00C0.0402
T06F00S00C0.0430
T07F00S00C0.0433
T08F00S00C0.0551
T09F00S00C0.0669
T10F00S00C0.1650
;TYPE=NON_PLATED
T11F00S00C0.1181
T12F00S00C0.1210
T13F00S00C0.1260
%
T01
X27422Y36212
X27950Y36222
T02
X83780Y2323
X75079Y4409
X73465Y4016
X72283Y2165
X71654
X70945
X71033Y915
X69488Y709
X68780Y2402
X68110
X72283Y1535
X58858Y787
X59252Y2756
X58465Y4528
X50827Y4055
X47441Y1535
X46811
Y2165
X45748
X45945Y1260
X44291Y709
X43583Y2402
X42913
X42520Y1772
X17717Y18701
X17362Y19488
X14685
X14961Y18701
X12992
X7471Y18961
X7471Y20110
X3661Y20197
X20118Y19488
X20472Y18701
X23228
X22874Y19488
X25630
X25984Y18701
X27598Y19016
X27598Y20039
X26772
X28425
X29252
X30079
X30906
X31732
X30906Y19016
X29252
X34449Y17126
X34606Y12598
X34734Y13632
X34774Y10404
X36230Y8738
X37047Y8228
Y6929
X36792Y5570
X36772Y5000
X37480Y11496
X37520Y13071
X37480Y14685
X38110Y15354
X38701Y16575
X38543Y17165
X36496Y17323
X36139Y16869
X35573Y17031
X36969Y19094
X38110Y19134
X38780Y19528
X42618Y20226
X43012
X43012Y17913
X43504
X43996
X42421
Y17421
Y16929
Y16437
Y15945
Y15453
X43012
X43504
X43996
X43307Y13740
X43307Y12649
X43425Y12047
X43307Y11557
X43307Y10465
X42677Y10472
Y9370
X43307Y9374
X43307Y8282
X42677Y8268
Y7126
X43307Y7190
X44390Y6250
X44783
Y5807
X44390
Y5364
X44783
X47146
X47539
Y5807
X47146
Y6250
X47539
X47244Y6791
Y7185
X47047Y7480
X46654
X46260
X47992Y7362
X48291Y6850
X49232Y6201
X49921Y4843
X47008Y11024
X46417
X44843Y10787
X44567Y11299
X46024Y12953
X46260Y13386
X47539Y13484
Y13091
X47736Y12795
X48130
X48524
X47638Y14011
X47244
Y14454
X47638
X47638Y14896
X47244
X47362Y15551
X48563Y17477
X48632Y19567
X49488Y19528
X47737Y19651
X46161Y20226
X45768
X45472Y18268
X46378Y18425
X50000Y14896
Y14454
Y14011
X50394
Y14454
Y14896
X51339Y14449
X51181Y16142
X51142Y18504
X51181Y19252
X55291Y20187
X55685
X55610Y17913
X56102
X56594
X55020
Y17421
Y16929
Y16437
Y15945
Y15453
X55610
X56102
X56594
X55906Y13740
X55906Y12649
X55906Y11557
X56024Y10956
X55906Y10465
X56024Y9864
X55906Y9374
X55906Y8282
X56496Y7795
X55906Y7190
X58012Y9409
X58061Y10010
X57992Y11220
X58032Y11850
X58819Y12717
X58858Y13307
X60442Y13643
X60413Y12579
X60394Y11929
X60659Y10404
X59685Y10827
X62677Y11496
X62205Y8228
X61417Y8701
X62598Y5866
X62992Y6260
X56378Y11968
X51811Y11693
X51516Y11270
X52126Y10984
X50414Y5964
X50394Y5394
X58740Y18110
X58835Y20187
X58441
X60591Y19134
X63976Y19252
X67890Y20187
X68283
X68209Y17913
X68701
X69193
X67618
Y17421
Y16929
Y16437
Y15945
Y15453
X68209
X68701
X69193
X68504Y13740
X68504Y12649
X68622Y12047
X68504Y11557
X68622Y10956
X68504Y10465
X68622Y9864
X68504Y9374
X68504Y8282
Y7190
X69980Y6250
Y5807
X69587
Y5364
X69980
X72343
X72736
Y5807
X72343
Y6250
X72736
X72441Y6791
Y7185
X72244Y7480
X71850
X71457
X73307Y7441
X73839Y7146
X74606Y6063
Y5512
X75512Y5551
X75551Y4882
X75945Y6181
X76102Y11220
X75591Y14011
X75197
Y14454
X75591
Y14896
X75197
X76299Y14724
X76319Y17146
X76339Y18504
X76378Y19606
X74921Y19213
X74370
X72917Y19623
X71433Y20187
X71039
X71339Y18386
X71811Y18032
X71929Y17126
X73760Y17477
X72835Y14896
X72441
Y14454
X72835
Y14011
X72441
X72736Y13484
Y13091
X72933Y12795
X73327
X73720
X71295Y12913
X71532Y13346
X70630Y10827
X69839Y11260
X81102Y11557
X81535Y11220
X81102Y10465
X81220Y9864
X81102Y9374
X81102Y8282
Y7190
X80709Y12677
X81102Y13740
X81299Y15453
X80807
X80217
Y15945
Y16437
Y16929
Y17421
Y17913
X80807
X81299
X80882Y20187
X80488
X77835Y19055
X81799Y17913
X81791Y15453
X84291Y12795
Y12244
X83268Y11024
X83297Y10010
X82362Y10709
X82461Y8346
X81693Y7835
X82461Y21693
Y22087
X82904
Y21693
X83346
Y22087
X81907Y26732
X82655Y29213
X84094Y30866
X83504Y32126
X83797Y33976
X80630Y33740
X80512Y32559
X79724Y31181
X77520Y31339
X77638Y32128
X76968Y32126
X76024Y31890
X75512Y32559
X75413Y33189
X74724
X73366Y33699
X72283
X71299
X70315Y33701
X68898Y35157
X69370Y35866
X72283Y35157
X72795Y31850
X73110Y31417
X73504Y31732
X73819Y30827
X70000Y30866
X70157Y29744
X69843Y28740
X70354Y28346
X67992Y29134
X67362Y29843
X68504Y32165
X66102Y32795
X66614Y33661
X77480Y33740
X78504Y33465
X79055Y33740
X77992Y32638
X77970Y35512
X79545
X81417Y35236
X80394Y27992
X79882
X80669Y26969
X81181
X81106Y22092
Y21698
X81549
Y22092
X80663
Y21698
X80488Y21073
X80882
Y20630
X80488
X71433Y20630
X71039
Y21073
X71433
X70154Y21713
Y22106
X69711
Y21713
X69268
Y22106
X68283Y21073
X67890
Y20630
X68283
X75512Y28661
X77520Y28898
X65827Y29291
X63661
X62795Y29370
X62362Y29528
X62244Y28622
X62717Y28740
X62598Y30512
X63661
X64409Y30513
X65354Y31102
X65079Y32126
X65354Y32874
X64961Y33071
X65709Y33583
X63661Y33976
Y34409
X63445Y34815
X62988Y34967
X63245Y35363
X63693Y35228
X63497Y35780
X63189Y33976
X61654Y33504
X60276Y33543
Y34173
Y34764
X59016Y34724
X58701Y33425
X58189Y33701
X56614Y33622
X55906Y32677
X55394Y32480
X54921Y32717
X55000Y32126
X54449Y31811
X54409Y32520
X53898Y32205
X53858Y30315
X53268
X53543Y29961
X52835Y30000
X51654Y30709
X50787Y30512
X50748Y31535
X51614Y33504
X53189
X54606Y33543
X55315Y35118
Y35551
X55984Y34961
X57614Y35834
X56614Y31378
X56654Y30906
X55866Y31417
X55157Y31102
X55748Y30394
X58386Y30118
X58976Y28937
X60039Y29134
Y28701
X60591Y29252
Y29724
X60039Y31339
X61930Y31221
X62520Y26929
X62953Y26654
X55866Y25906
X55394Y25945
X54882
X54331
X53543Y25984
X53110Y26063
X52520Y27047
X53865Y27437
X50551Y26181
X51102Y25551
X55291Y21073
X55685
Y20630
X55291
X56669Y21713
Y22106
X57112
Y21713
X57555
Y22106
X58441Y21073
X58835
Y20630
X58441
X57283Y28937
X48858Y28110
X46637Y28165
Y27673
Y27181
Y26689
X46358Y26358
Y28524
X47047Y28819
X47008Y31614
X46260Y35000
X44252Y34724
X44016Y35157
X42835Y33740
X39843Y33622
X39134Y32402
X39291Y31496
X40000
X38583
X40000Y29409
X43012Y28524
X42733Y28193
Y27701
Y27209
Y26717
X43012Y26358
X43996Y22146
Y21752
X44439
Y22146
X44882
Y21752
X45768Y21112
X46161
Y20669
X45768
X43012
X42618
Y21112
X43012
X37303Y25492
X36860
X36417
X36139Y25823
X36142Y26260
Y26890
X36139Y27299
X36417Y27657
X36860
X37303
X37582Y27299
Y26807
Y26315
Y25823
X35121
X35118Y26260
Y26890
X35121Y27299
X34843Y27657
Y25492
X35197Y29528
X35669
X34921Y33898
X35236Y34685
X38386Y35157
X34646Y34685
X34055
X34370Y33898
X30591Y34409
X29882Y32480
X29409
X29646Y30630
X30394Y29488
X28898Y27913
X26339
X25512
X22874
X22442Y27593
X22323Y28307
X21299Y28346
X19409Y28189
X21299Y30945
X21772
X22441Y34843
X24213Y34173
Y33661
X24803
X25803
X26803
X26772Y34409
X26850Y35079
X27336Y35081
X27779
X28268Y35079
X26142Y34715
X25472
X26890Y30787
X27362Y30945
X28071
X33937Y29213
X33957Y27657
X34400
X33678Y27299
Y26807
Y26315
Y25823
X33957Y25492
X34400
X34252Y21417
X33472Y21858
X24252Y20984
X19173Y22165
X18386
X18799Y25512
X15354Y25157
X14252Y25118
X13898Y27756
X15016Y28047
X15074Y30121
X14601Y30397
X14449Y31378
X15079Y31732
X14882Y32402
X14213
X14528Y33071
X15807Y33071
X15787Y35866
X17244Y35827
X19016Y35236
X18661Y32953
X18819Y32205
X16024Y29567
X15551Y29843
X9528Y29764
X9449Y30315
X9606Y31693
Y32402
X9409Y33071
X8661
X7441Y33012
X6063Y32953
X6260Y32087
X5512
X5118Y32795
X4291Y33012
X3858Y34803
X5433
X8780
X10551
X10984Y33071
X10118Y32992
X11378Y32402
Y31850
X12559Y33071
X12244Y35866
X13858Y35039
X10236Y28937
X9926Y28441
X9882Y27874
X10433
X11140Y26281
X8335Y27627
X7776Y28248
X7795Y28937
X7559Y30315
X7638Y30787
X7205Y31181
X6929Y30079
X6339Y30118
X5354Y30039
X4488Y29961
X3898Y30394
X4252Y29134
X4528Y27835
X6142Y27913
X4173Y21732
X5512Y20276
X10591Y20315
X3248Y27608
Y28051
X2917Y28330
X2425
X1933
X1441
X1083Y28051
Y27608
X2244Y36890
X3976Y38228
X6929Y37480
X9429Y38012
X12008Y37480
X12087Y36496
X15709Y37677
X17244Y37559
X18996Y36555
X21031Y35901
X22146Y37539
X20315Y38228
X24331Y36969
X25866Y37047
X26614Y36220
X28504
X28740Y36673
X28051
X28386Y38268
X33976Y37441
X35315
X37835Y37402
X38031Y38150
X39368Y38189
X40057
X40157Y36969
X38661
X38268Y36437
X37795
X41732Y36969
X42222Y38189
X43661Y38150
X44685Y36693
X44173Y35945
X48898Y37087
X49606Y37835
X50945Y38189
X51968
X52657
X54616Y38190
X55658Y37525
X55590Y36890
X56266Y37148
X56417Y36457
X56521Y36004
X55866Y36102
X55354
X53740Y36299
X52165Y36299
X50354Y36457
X57318Y36149
X57205Y37087
X57520Y37480
X58150
X58690Y37444
X59386Y36970
X60394Y36811
X60945Y37677
X61614Y37520
X62008Y37953
X62756Y37992
X63583Y37520
X63845Y36839
X62913Y36496
X62362Y35906
X60079Y37913
X57992Y36811
X56890Y37598
X64564Y38189
X65253
X67419
X69646Y37953
X70157
X70669
X69843Y36378
X68898Y36102
X75000Y37205
X75906Y37047
X75669Y36614
X76198Y35984
X77163Y38189
X77852
X80017
X81240Y38031
T04
X81673Y30150
Y31150
Y32150
Y33150
T05
X31890Y29496
X32890
Y30496
Y31496
Y32496
Y33496
Y34496
Y35496
X31890
Y34496
Y33496
Y32496
Y31496
Y30496
Y36496
X32890
T06
X40385Y7171
Y8261
Y9351
Y10441
Y11531
Y12621
Y13711
X41505Y13171
Y12081
Y10991
Y9891
Y8801
Y7711
Y6621
Y14261
X52983Y13711
Y12621
Y11531
Y10441
Y9351
Y8261
Y7171
X54103Y7711
Y8801
Y9891
Y10991
Y12081
Y13171
Y14261
Y6621
X65582Y7171
Y8261
Y9351
Y10441
Y11531
Y12621
Y13711
X66702Y13171
Y14261
Y12081
Y10991
Y9891
Y8801
Y7711
Y6621
X78180Y7171
Y8261
Y9351
Y10441
Y11531
Y12621
Y13711
X79300Y13171
Y12081
Y10991
Y9891
Y8801
Y7711
Y6621
Y14261
T07
X17323Y31102
Y32102
X17323Y33102
X17323Y34102
T08
X19685Y21063
X21339
Y23228
X19685
X26772
X28425
X30079Y23228
X31732Y23228
X31732Y21063
X30079
X28425
X26772
X18031
X16378
X14724
X13071
X11417
X9764
X8110
X6457
X4803
X4803Y23228
X6457
X8110
X9764Y23228
X11417Y23228
X13071
X14724
X16378
X18031
X3150
X3150Y21063
T09
X20866Y25984
Y27323
X24772
Y25984
X28187Y25905
Y27244
X32093
Y25905
X16898Y25591
Y26929
X12992
Y25591
X9024Y25591
Y26929
X5118
Y25591
T10
X40945Y4991
Y15891
X53543
Y4991
X66142
Y15891
X78740
Y4991
T11
X23189Y21244
X24921Y23047
X33583
X1299Y21244
T12
X66142Y1181
X78740
X53543
X40945
Y19701
X53543
X66142
X78740
T13
X74409Y2362
X62008
X49213
X36417
X1575Y19685
X62205Y18110
X1772Y33661
X46850Y36811
X82874
M30
