G04*
G04 #@! TF.GenerationSoftware,Altium Limited,Altium Designer,24.3.1 (35)*
G04*
G04 Layer_Color=8388736*
%FSLAX25Y25*%
%MOIN*%
G70*
G04*
G04 #@! TF.SameCoordinates,03FD84D8-87D8-4BCB-B200-23DCDFDCD728*
G04*
G04*
G04 #@! TF.FilePolarity,Negative*
G04*
G01*
G75*
G04:AMPARAMS|DCode=37|XSize=47.37mil|YSize=45.4mil|CornerRadius=8.68mil|HoleSize=0mil|Usage=FLASHONLY|Rotation=270.000|XOffset=0mil|YOffset=0mil|HoleType=Round|Shape=RoundedRectangle|*
%AMROUNDEDRECTD37*
21,1,0.04737,0.02805,0,0,270.0*
21,1,0.03002,0.04540,0,0,270.0*
1,1,0.01735,-0.01403,-0.01501*
1,1,0.01735,-0.01403,0.01501*
1,1,0.01735,0.01403,0.01501*
1,1,0.01735,0.01403,-0.01501*
%
%ADD37ROUNDEDRECTD37*%
%ADD38C,0.04737*%
G04:AMPARAMS|DCode=39|XSize=47.37mil|YSize=47.37mil|CornerRadius=8.92mil|HoleSize=0mil|Usage=FLASHONLY|Rotation=90.000|XOffset=0mil|YOffset=0mil|HoleType=Round|Shape=RoundedRectangle|*
%AMROUNDEDRECTD39*
21,1,0.04737,0.02953,0,0,90.0*
21,1,0.02953,0.04737,0,0,90.0*
1,1,0.01784,0.01476,0.01476*
1,1,0.01784,0.01476,-0.01476*
1,1,0.01784,-0.01476,-0.01476*
1,1,0.01784,-0.01476,0.01476*
%
%ADD39ROUNDEDRECTD39*%
G04:AMPARAMS|DCode=40|XSize=47.37mil|YSize=45.4mil|CornerRadius=8.68mil|HoleSize=0mil|Usage=FLASHONLY|Rotation=135.000|XOffset=0mil|YOffset=0mil|HoleType=Round|Shape=RoundedRectangle|*
%AMROUNDEDRECTD40*
21,1,0.04737,0.02805,0,0,135.0*
21,1,0.03002,0.04540,0,0,135.0*
1,1,0.01735,-0.00070,0.02053*
1,1,0.01735,0.02053,-0.00070*
1,1,0.01735,0.00070,-0.02053*
1,1,0.01735,-0.02053,0.00070*
%
%ADD40ROUNDEDRECTD40*%
G04:AMPARAMS|DCode=41|XSize=47.37mil|YSize=45.4mil|CornerRadius=8.68mil|HoleSize=0mil|Usage=FLASHONLY|Rotation=225.000|XOffset=0mil|YOffset=0mil|HoleType=Round|Shape=RoundedRectangle|*
%AMROUNDEDRECTD41*
21,1,0.04737,0.02805,0,0,225.0*
21,1,0.03002,0.04540,0,0,225.0*
1,1,0.01735,-0.02053,-0.00070*
1,1,0.01735,0.00070,0.02053*
1,1,0.01735,0.02053,0.00070*
1,1,0.01735,-0.00070,-0.02053*
%
%ADD41ROUNDEDRECTD41*%
%ADD42O,0.06509X0.03162*%
G04:AMPARAMS|DCode=43|XSize=47.37mil|YSize=47.37mil|CornerRadius=8.92mil|HoleSize=0mil|Usage=FLASHONLY|Rotation=0.000|XOffset=0mil|YOffset=0mil|HoleType=Round|Shape=RoundedRectangle|*
%AMROUNDEDRECTD43*
21,1,0.04737,0.02953,0,0,0.0*
21,1,0.02953,0.04737,0,0,0.0*
1,1,0.01784,0.01476,-0.01476*
1,1,0.01784,-0.01476,-0.01476*
1,1,0.01784,-0.01476,0.01476*
1,1,0.01784,0.01476,0.01476*
%
%ADD43ROUNDEDRECTD43*%
G04:AMPARAMS|DCode=44|XSize=65.09mil|YSize=51.31mil|CornerRadius=9.41mil|HoleSize=0mil|Usage=FLASHONLY|Rotation=0.000|XOffset=0mil|YOffset=0mil|HoleType=Round|Shape=RoundedRectangle|*
%AMROUNDEDRECTD44*
21,1,0.06509,0.03248,0,0,0.0*
21,1,0.04626,0.05131,0,0,0.0*
1,1,0.01883,0.02313,-0.01624*
1,1,0.01883,-0.02313,-0.01624*
1,1,0.01883,-0.02313,0.01624*
1,1,0.01883,0.02313,0.01624*
%
%ADD44ROUNDEDRECTD44*%
G04:AMPARAMS|DCode=45|XSize=47.37mil|YSize=47.37mil|CornerRadius=8.92mil|HoleSize=0mil|Usage=FLASHONLY|Rotation=225.000|XOffset=0mil|YOffset=0mil|HoleType=Round|Shape=RoundedRectangle|*
%AMROUNDEDRECTD45*
21,1,0.04737,0.02953,0,0,225.0*
21,1,0.02953,0.04737,0,0,225.0*
1,1,0.01784,-0.02088,0.00000*
1,1,0.01784,0.00000,0.02088*
1,1,0.01784,0.02088,0.00000*
1,1,0.01784,0.00000,-0.02088*
%
%ADD45ROUNDEDRECTD45*%
G04:AMPARAMS|DCode=46|XSize=47.37mil|YSize=47.37mil|CornerRadius=8.92mil|HoleSize=0mil|Usage=FLASHONLY|Rotation=315.000|XOffset=0mil|YOffset=0mil|HoleType=Round|Shape=RoundedRectangle|*
%AMROUNDEDRECTD46*
21,1,0.04737,0.02953,0,0,315.0*
21,1,0.02953,0.04737,0,0,315.0*
1,1,0.01784,0.00000,-0.02088*
1,1,0.01784,-0.02088,0.00000*
1,1,0.01784,0.00000,0.02088*
1,1,0.01784,0.02088,0.00000*
%
%ADD46ROUNDEDRECTD46*%
G04:AMPARAMS|DCode=47|XSize=19.81mil|YSize=67.06mil|CornerRadius=0mil|HoleSize=0mil|Usage=FLASHONLY|Rotation=225.000|XOffset=0mil|YOffset=0mil|HoleType=Round|Shape=Round|*
%AMOVALD47*
21,1,0.04724,0.01981,0.00000,0.00000,315.0*
1,1,0.01981,-0.01670,0.01670*
1,1,0.01981,0.01670,-0.01670*
%
%ADD47OVALD47*%

G04:AMPARAMS|DCode=48|XSize=19.81mil|YSize=67.06mil|CornerRadius=0mil|HoleSize=0mil|Usage=FLASHONLY|Rotation=315.000|XOffset=0mil|YOffset=0mil|HoleType=Round|Shape=Round|*
%AMOVALD48*
21,1,0.04724,0.01981,0.00000,0.00000,45.0*
1,1,0.01981,-0.01670,-0.01670*
1,1,0.01981,0.01670,0.01670*
%
%ADD48OVALD48*%

G04:AMPARAMS|DCode=49|XSize=47.37mil|YSize=45.4mil|CornerRadius=8.68mil|HoleSize=0mil|Usage=FLASHONLY|Rotation=180.000|XOffset=0mil|YOffset=0mil|HoleType=Round|Shape=RoundedRectangle|*
%AMROUNDEDRECTD49*
21,1,0.04737,0.02805,0,0,180.0*
21,1,0.03002,0.04540,0,0,180.0*
1,1,0.01735,-0.01501,0.01403*
1,1,0.01735,0.01501,0.01403*
1,1,0.01735,0.01501,-0.01403*
1,1,0.01735,-0.01501,-0.01403*
%
%ADD49ROUNDEDRECTD49*%
%ADD50R,0.05524X0.03950*%
G04:AMPARAMS|DCode=51|XSize=39.5mil|YSize=51.31mil|CornerRadius=7.94mil|HoleSize=0mil|Usage=FLASHONLY|Rotation=90.000|XOffset=0mil|YOffset=0mil|HoleType=Round|Shape=RoundedRectangle|*
%AMROUNDEDRECTD51*
21,1,0.03950,0.03543,0,0,90.0*
21,1,0.02362,0.05131,0,0,90.0*
1,1,0.01587,0.01772,0.01181*
1,1,0.01587,0.01772,-0.01181*
1,1,0.01587,-0.01772,-0.01181*
1,1,0.01587,-0.01772,0.01181*
%
%ADD51ROUNDEDRECTD51*%
G04:AMPARAMS|DCode=52|XSize=65.09mil|YSize=51.31mil|CornerRadius=9.41mil|HoleSize=0mil|Usage=FLASHONLY|Rotation=270.000|XOffset=0mil|YOffset=0mil|HoleType=Round|Shape=RoundedRectangle|*
%AMROUNDEDRECTD52*
21,1,0.06509,0.03248,0,0,270.0*
21,1,0.04626,0.05131,0,0,270.0*
1,1,0.01883,-0.01624,-0.02313*
1,1,0.01883,-0.01624,0.02313*
1,1,0.01883,0.01624,0.02313*
1,1,0.01883,0.01624,-0.02313*
%
%ADD52ROUNDEDRECTD52*%
G04:AMPARAMS|DCode=53|XSize=58mil|YSize=208mil|CornerRadius=16.5mil|HoleSize=0mil|Usage=FLASHONLY|Rotation=180.000|XOffset=0mil|YOffset=0mil|HoleType=Round|Shape=RoundedRectangle|*
%AMROUNDEDRECTD53*
21,1,0.05800,0.17500,0,0,180.0*
21,1,0.02500,0.20800,0,0,180.0*
1,1,0.03300,-0.01250,0.08750*
1,1,0.03300,0.01250,0.08750*
1,1,0.03300,0.01250,-0.08750*
1,1,0.03300,-0.01250,-0.08750*
%
%ADD53ROUNDEDRECTD53*%
G04:AMPARAMS|DCode=54|XSize=86.74mil|YSize=67.06mil|CornerRadius=18.76mil|HoleSize=0mil|Usage=FLASHONLY|Rotation=180.000|XOffset=0mil|YOffset=0mil|HoleType=Round|Shape=RoundedRectangle|*
%AMROUNDEDRECTD54*
21,1,0.08674,0.02953,0,0,180.0*
21,1,0.04921,0.06706,0,0,180.0*
1,1,0.03753,-0.02461,0.01476*
1,1,0.03753,0.02461,0.01476*
1,1,0.03753,0.02461,-0.01476*
1,1,0.03753,-0.02461,-0.01476*
%
%ADD54ROUNDEDRECTD54*%
G04:AMPARAMS|DCode=55|XSize=47.37mil|YSize=106.42mil|CornerRadius=13.84mil|HoleSize=0mil|Usage=FLASHONLY|Rotation=180.000|XOffset=0mil|YOffset=0mil|HoleType=Round|Shape=RoundedRectangle|*
%AMROUNDEDRECTD55*
21,1,0.04737,0.07874,0,0,180.0*
21,1,0.01968,0.10642,0,0,180.0*
1,1,0.02769,-0.00984,0.03937*
1,1,0.02769,0.00984,0.03937*
1,1,0.02769,0.00984,-0.03937*
1,1,0.02769,-0.00984,-0.03937*
%
%ADD55ROUNDEDRECTD55*%
%ADD56C,0.08280*%
%ADD57C,0.07887*%
%ADD58C,0.22453*%
%ADD59C,0.00800*%
%ADD60O,0.10642X0.12611*%
G04:AMPARAMS|DCode=61|XSize=106.42mil|YSize=126.11mil|CornerRadius=28.61mil|HoleSize=0mil|Usage=FLASHONLY|Rotation=0.000|XOffset=0mil|YOffset=0mil|HoleType=Round|Shape=RoundedRectangle|*
%AMROUNDEDRECTD61*
21,1,0.10642,0.06890,0,0,0.0*
21,1,0.04921,0.12611,0,0,0.0*
1,1,0.05721,0.02461,-0.03445*
1,1,0.05721,-0.02461,-0.03445*
1,1,0.05721,-0.02461,0.03445*
1,1,0.05721,0.02461,0.03445*
%
%ADD61ROUNDEDRECTD61*%
%ADD62C,0.07099*%
%ADD63C,0.10249*%
G36*
X253588Y358271D02*
X253712Y358281D01*
X253834Y358297D01*
X253956Y358319D01*
X254076Y358348D01*
X254194Y358383D01*
X254311Y358425D01*
X254425Y358472D01*
X254537Y358525D01*
X254646Y358584D01*
X254751Y358649D01*
X254853Y358719D01*
X254951Y358794D01*
X255045Y358875D01*
X255135Y358960D01*
X255220Y359049D01*
X255300Y359143D01*
X255376Y359242D01*
X255446Y359343D01*
X255510Y359449D01*
X255569Y359558D01*
X255623Y359669D01*
X255670Y359783D01*
X255711Y359900D01*
X255746Y360018D01*
X255775Y360139D01*
X255798Y360260D01*
X255814Y360383D01*
X255823Y360506D01*
X255827Y360630D01*
Y363779D01*
X255823Y363903D01*
X255814Y364026D01*
X255798Y364149D01*
X255775Y364271D01*
X255746Y364391D01*
X255711Y364510D01*
X255670Y364626D01*
X255623Y364740D01*
X255569Y364852D01*
X255510Y364961D01*
X255446Y365066D01*
X255376Y365168D01*
X255300Y365266D01*
X255220Y365360D01*
X255135Y365450D01*
X255045Y365535D01*
X254951Y365615D01*
X254853Y365691D01*
X254751Y365761D01*
X254646Y365825D01*
X254537Y365884D01*
X254425Y365937D01*
X254311Y365985D01*
X254194Y366026D01*
X254076Y366061D01*
X253956Y366090D01*
X253834Y366113D01*
X253712Y366129D01*
X253588Y366139D01*
X253465Y366142D01*
X253341Y366139D01*
X253218Y366129D01*
X253095Y366113D01*
X252973Y366090D01*
X252853Y366061D01*
X252735Y366026D01*
X252618Y365985D01*
X252504Y365937D01*
X252392Y365884D01*
X252283Y365825D01*
X252178Y365761D01*
X252076Y365691D01*
X251978Y365615D01*
X251884Y365535D01*
X251794Y365450D01*
X251709Y365360D01*
X251629Y365266D01*
X251554Y365168D01*
X251483Y365066D01*
X251419Y364961D01*
X251360Y364852D01*
X251307Y364740D01*
X251259Y364626D01*
X251218Y364510D01*
X251183Y364391D01*
X251154Y364271D01*
X251131Y364149D01*
X251115Y364026D01*
X251106Y363903D01*
X251102Y363779D01*
Y360630D01*
X251106Y360506D01*
X251115Y360383D01*
X251131Y360260D01*
X251154Y360139D01*
X251183Y360019D01*
X251218Y359900D01*
X251259Y359783D01*
X251307Y359669D01*
X251360Y359558D01*
X251419Y359449D01*
X251483Y359343D01*
X251554Y359241D01*
X251629Y359143D01*
X251709Y359049D01*
X251794Y358960D01*
X251884Y358875D01*
X251978Y358794D01*
X252076Y358719D01*
X252178Y358649D01*
X252283Y358584D01*
X252392Y358525D01*
X252504Y358472D01*
X252618Y358425D01*
X252735Y358383D01*
X252853Y358348D01*
X252973Y358319D01*
X253095Y358297D01*
X253218Y358281D01*
X253341Y358271D01*
X253465Y358268D01*
X253588Y358271D01*
D02*
G37*
G36*
Y373232D02*
X253712Y373241D01*
X253834Y373257D01*
X253956Y373280D01*
X254076Y373309D01*
X254194Y373344D01*
X254311Y373385D01*
X254425Y373433D01*
X254537Y373486D01*
X254646Y373545D01*
X254751Y373609D01*
X254853Y373679D01*
X254951Y373755D01*
X255045Y373835D01*
X255135Y373920D01*
X255220Y374010D01*
X255300Y374104D01*
X255376Y374202D01*
X255446Y374304D01*
X255510Y374409D01*
X255569Y374518D01*
X255623Y374630D01*
X255670Y374744D01*
X255711Y374861D01*
X255746Y374979D01*
X255775Y375099D01*
X255798Y375221D01*
X255814Y375344D01*
X255823Y375467D01*
X255827Y375591D01*
Y380315D01*
X255823Y380439D01*
X255814Y380562D01*
X255798Y380684D01*
X255775Y380806D01*
X255746Y380926D01*
X255711Y381045D01*
X255670Y381161D01*
X255623Y381276D01*
X255569Y381387D01*
X255510Y381496D01*
X255446Y381602D01*
X255376Y381703D01*
X255300Y381802D01*
X255220Y381896D01*
X255135Y381985D01*
X255045Y382070D01*
X254951Y382151D01*
X254853Y382226D01*
X254751Y382296D01*
X254646Y382361D01*
X254537Y382420D01*
X254425Y382473D01*
X254311Y382520D01*
X254194Y382561D01*
X254076Y382597D01*
X253956Y382626D01*
X253834Y382648D01*
X253712Y382664D01*
X253588Y382674D01*
X253465Y382677D01*
X253341Y382674D01*
X253218Y382664D01*
X253095Y382648D01*
X252973Y382626D01*
X252853Y382597D01*
X252735Y382561D01*
X252618Y382520D01*
X252504Y382473D01*
X252392Y382420D01*
X252284Y382361D01*
X252178Y382296D01*
X252076Y382226D01*
X251978Y382151D01*
X251884Y382070D01*
X251794Y381985D01*
X251709Y381896D01*
X251629Y381802D01*
X251554Y381703D01*
X251483Y381602D01*
X251419Y381496D01*
X251360Y381387D01*
X251307Y381276D01*
X251259Y381161D01*
X251218Y381045D01*
X251183Y380926D01*
X251154Y380806D01*
X251131Y380684D01*
X251115Y380562D01*
X251106Y380439D01*
X251102Y380315D01*
Y375591D01*
X251106Y375467D01*
X251115Y375344D01*
X251131Y375221D01*
X251154Y375099D01*
X251183Y374979D01*
X251218Y374861D01*
X251259Y374744D01*
X251307Y374630D01*
X251360Y374518D01*
X251419Y374409D01*
X251483Y374304D01*
X251554Y374202D01*
X251629Y374104D01*
X251709Y374010D01*
X251794Y373920D01*
X251884Y373835D01*
X251978Y373755D01*
X252076Y373679D01*
X252178Y373609D01*
X252283Y373545D01*
X252392Y373486D01*
X252504Y373433D01*
X252618Y373385D01*
X252735Y373344D01*
X252853Y373309D01*
X252973Y373280D01*
X253095Y373257D01*
X253218Y373241D01*
X253341Y373232D01*
X253465Y373228D01*
X253588Y373232D01*
D02*
G37*
G36*
X297840Y358271D02*
X297964Y358281D01*
X298086Y358297D01*
X298208Y358319D01*
X298328Y358348D01*
X298446Y358383D01*
X298563Y358425D01*
X298677Y358472D01*
X298789Y358525D01*
X298898Y358584D01*
X299003Y358649D01*
X299105Y358719D01*
X299203Y358794D01*
X299297Y358875D01*
X299387Y358960D01*
X299472Y359049D01*
X299552Y359143D01*
X299628Y359242D01*
X299698Y359343D01*
X299762Y359449D01*
X299821Y359558D01*
X299874Y359669D01*
X299922Y359783D01*
X299963Y359900D01*
X299998Y360019D01*
X300027Y360139D01*
X300050Y360260D01*
X300066Y360383D01*
X300076Y360506D01*
X300079Y360630D01*
Y363779D01*
X300076Y363903D01*
X300066Y364026D01*
X300050Y364149D01*
X300027Y364271D01*
X299998Y364391D01*
X299963Y364510D01*
X299922Y364626D01*
X299874Y364740D01*
X299821Y364852D01*
X299762Y364961D01*
X299698Y365066D01*
X299628Y365168D01*
X299552Y365266D01*
X299472Y365360D01*
X299387Y365450D01*
X299297Y365535D01*
X299203Y365615D01*
X299105Y365691D01*
X299003Y365761D01*
X298898Y365825D01*
X298789Y365884D01*
X298677Y365937D01*
X298563Y365985D01*
X298446Y366026D01*
X298328Y366061D01*
X298208Y366090D01*
X298086Y366113D01*
X297964Y366129D01*
X297840Y366139D01*
X297716Y366142D01*
X297593Y366139D01*
X297470Y366129D01*
X297347Y366113D01*
X297225Y366090D01*
X297105Y366061D01*
X296987Y366026D01*
X296870Y365985D01*
X296756Y365937D01*
X296644Y365884D01*
X296535Y365825D01*
X296430Y365761D01*
X296328Y365691D01*
X296230Y365615D01*
X296136Y365535D01*
X296046Y365450D01*
X295961Y365360D01*
X295881Y365266D01*
X295806Y365168D01*
X295735Y365066D01*
X295671Y364961D01*
X295612Y364852D01*
X295559Y364740D01*
X295511Y364626D01*
X295470Y364510D01*
X295435Y364391D01*
X295406Y364271D01*
X295383Y364149D01*
X295367Y364026D01*
X295358Y363903D01*
X295354Y363779D01*
X295354Y360630D01*
X295358Y360506D01*
X295367Y360383D01*
X295383Y360260D01*
X295406Y360139D01*
X295435Y360019D01*
X295470Y359900D01*
X295511Y359783D01*
X295559Y359669D01*
X295612Y359558D01*
X295671Y359449D01*
X295735Y359343D01*
X295806Y359242D01*
X295881Y359143D01*
X295961Y359049D01*
X296046Y358960D01*
X296136Y358875D01*
X296230Y358794D01*
X296328Y358719D01*
X296430Y358649D01*
X296535Y358584D01*
X296644Y358525D01*
X296756Y358472D01*
X296870Y358425D01*
X296987Y358383D01*
X297105Y358348D01*
X297225Y358319D01*
X297347Y358297D01*
X297470Y358281D01*
X297593Y358271D01*
X297716Y358268D01*
X297840Y358271D01*
D02*
G37*
G36*
Y373232D02*
X297964Y373241D01*
X298086Y373257D01*
X298208Y373280D01*
X298328Y373309D01*
X298446Y373344D01*
X298563Y373385D01*
X298677Y373433D01*
X298789Y373486D01*
X298898Y373545D01*
X299003Y373609D01*
X299105Y373679D01*
X299203Y373755D01*
X299297Y373835D01*
X299387Y373920D01*
X299472Y374010D01*
X299552Y374104D01*
X299628Y374202D01*
X299698Y374304D01*
X299762Y374409D01*
X299821Y374518D01*
X299874Y374630D01*
X299922Y374744D01*
X299963Y374861D01*
X299998Y374979D01*
X300027Y375099D01*
X300050Y375221D01*
X300066Y375344D01*
X300076Y375467D01*
X300079Y375591D01*
X300079Y380315D01*
X300076Y380439D01*
X300066Y380562D01*
X300050Y380684D01*
X300027Y380806D01*
X299998Y380926D01*
X299963Y381045D01*
X299922Y381161D01*
X299874Y381276D01*
X299821Y381387D01*
X299762Y381496D01*
X299698Y381602D01*
X299628Y381703D01*
X299552Y381802D01*
X299472Y381896D01*
X299387Y381985D01*
X299297Y382070D01*
X299203Y382151D01*
X299105Y382226D01*
X299003Y382296D01*
X298898Y382361D01*
X298789Y382420D01*
X298677Y382473D01*
X298563Y382520D01*
X298446Y382561D01*
X298328Y382597D01*
X298208Y382626D01*
X298086Y382648D01*
X297963Y382664D01*
X297840Y382674D01*
X297716Y382677D01*
X297593Y382674D01*
X297470Y382664D01*
X297347Y382648D01*
X297225Y382626D01*
X297105Y382597D01*
X296987Y382561D01*
X296870Y382520D01*
X296756Y382473D01*
X296644Y382420D01*
X296535Y382361D01*
X296430Y382296D01*
X296328Y382226D01*
X296230Y382151D01*
X296136Y382070D01*
X296046Y381985D01*
X295961Y381896D01*
X295881Y381802D01*
X295806Y381703D01*
X295735Y381602D01*
X295671Y381496D01*
X295612Y381387D01*
X295559Y381276D01*
X295511Y381161D01*
X295470Y381045D01*
X295435Y380926D01*
X295406Y380806D01*
X295383Y380684D01*
X295367Y380562D01*
X295358Y380439D01*
X295354Y380315D01*
Y375591D01*
X295358Y375467D01*
X295367Y375344D01*
X295383Y375221D01*
X295406Y375099D01*
X295435Y374979D01*
X295470Y374861D01*
X295511Y374744D01*
X295559Y374630D01*
X295612Y374518D01*
X295671Y374409D01*
X295735Y374304D01*
X295806Y374202D01*
X295881Y374104D01*
X295961Y374010D01*
X296046Y373920D01*
X296136Y373835D01*
X296230Y373755D01*
X296328Y373679D01*
X296430Y373609D01*
X296535Y373545D01*
X296644Y373486D01*
X296756Y373433D01*
X296870Y373385D01*
X296987Y373344D01*
X297105Y373309D01*
X297225Y373280D01*
X297347Y373257D01*
X297470Y373241D01*
X297593Y373232D01*
X297716Y373228D01*
X297840Y373232D01*
D02*
G37*
D37*
X127165Y349410D02*
D03*
X120866D02*
D03*
X747638Y323031D02*
D03*
X741339D02*
D03*
Y316142D02*
D03*
X747638D02*
D03*
X716142Y290551D02*
D03*
X709842D02*
D03*
X716142Y312205D02*
D03*
X709842D02*
D03*
X414173Y320866D02*
D03*
X420472D02*
D03*
X370472Y340945D02*
D03*
X376772D02*
D03*
X370472Y334055D02*
D03*
X376772D02*
D03*
X370472Y327165D02*
D03*
X376772D02*
D03*
X356496Y360433D02*
D03*
X350197Y360433D02*
D03*
X356496Y368307D02*
D03*
X350197D02*
D03*
X612992Y141732D02*
D03*
X619291Y141732D02*
D03*
X738976Y122047D02*
D03*
X745276D02*
D03*
X738976Y141732D02*
D03*
X745276D02*
D03*
X738976Y161417D02*
D03*
X745276D02*
D03*
X619291Y122047D02*
D03*
X612992D02*
D03*
X612992Y161417D02*
D03*
X619291Y161417D02*
D03*
X493110Y162104D02*
D03*
X486811D02*
D03*
X493110Y142419D02*
D03*
X486811Y142419D02*
D03*
X493110Y122734D02*
D03*
X486811D02*
D03*
X367323Y161417D02*
D03*
X361024D02*
D03*
X367323Y141732D02*
D03*
X361024D02*
D03*
X367323Y122047D02*
D03*
X361024D02*
D03*
X287008Y338583D02*
D03*
X293307D02*
D03*
X280512D02*
D03*
X274213D02*
D03*
D38*
X840945Y313386D02*
D03*
X757283Y297441D02*
D03*
X734646Y323031D02*
D03*
X421850Y335039D02*
D03*
X362992Y327165D02*
D03*
X344488Y367323D02*
D03*
X824606Y81890D02*
D03*
X736811Y71457D02*
D03*
X614173Y85433D02*
D03*
X602559Y125787D02*
D03*
X362301Y85809D02*
D03*
X344488Y125984D02*
D03*
X254724Y343307D02*
D03*
X257874Y187008D02*
D03*
X175197D02*
D03*
X202756D02*
D03*
X147638D02*
D03*
X108268D02*
D03*
X68898D02*
D03*
X757283Y305315D02*
D03*
X261417Y343307D02*
D03*
X581693Y94095D02*
D03*
X492323Y60433D02*
D03*
X344488Y361417D02*
D03*
X230315Y187008D02*
D03*
D39*
X788189Y313779D02*
D03*
X781890D02*
D03*
X583858Y296457D02*
D03*
X590158D02*
D03*
X406299Y352756D02*
D03*
X400000D02*
D03*
X406299Y345866D02*
D03*
X400000D02*
D03*
X741339Y286614D02*
D03*
X747638Y286614D02*
D03*
D40*
X771519Y309707D02*
D03*
X767064Y305253D02*
D03*
D41*
Y297109D02*
D03*
X771519Y292655D02*
D03*
X628211Y371395D02*
D03*
X623757Y375849D02*
D03*
D42*
X725886Y308878D02*
D03*
Y303878D02*
D03*
Y298878D02*
D03*
Y293878D02*
D03*
X747342Y308878D02*
D03*
Y303878D02*
D03*
Y298878D02*
D03*
Y293878D02*
D03*
X384528Y339066D02*
D03*
Y334066D02*
D03*
Y329066D02*
D03*
Y324066D02*
D03*
X405984Y339066D02*
D03*
Y334066D02*
D03*
Y329066D02*
D03*
Y324066D02*
D03*
D43*
X716929Y298228D02*
D03*
X716929Y304528D02*
D03*
X634997Y326617D02*
D03*
X634997Y332916D02*
D03*
X559966Y344373D02*
D03*
X559966Y338074D02*
D03*
D44*
X710039Y297441D02*
D03*
X710039Y305315D02*
D03*
X642913Y332677D02*
D03*
Y324803D02*
D03*
X553006Y337286D02*
D03*
Y345160D02*
D03*
X265748Y370472D02*
D03*
Y378346D02*
D03*
D45*
X623051Y366122D02*
D03*
X618597Y370576D02*
D03*
X618130Y361201D02*
D03*
X613676Y365655D02*
D03*
D46*
X582418Y364308D02*
D03*
X586873Y368763D02*
D03*
D47*
X571869Y340154D02*
D03*
X573261Y341546D02*
D03*
X574653Y342938D02*
D03*
X576045Y344330D02*
D03*
X577436Y345722D02*
D03*
X578828Y347114D02*
D03*
X580220Y348506D02*
D03*
X570477Y338762D02*
D03*
X581612Y349898D02*
D03*
X583004Y351290D02*
D03*
X584396Y352682D02*
D03*
X585788Y354074D02*
D03*
X587180Y355466D02*
D03*
X588572Y356857D02*
D03*
X589964Y358249D02*
D03*
X591356Y359641D02*
D03*
X603048Y306191D02*
D03*
X604440Y307583D02*
D03*
X605832Y308975D02*
D03*
X607224Y310367D02*
D03*
X608616Y311758D02*
D03*
X610008Y313150D02*
D03*
X611400Y314542D02*
D03*
X612792Y315934D02*
D03*
X614184Y317326D02*
D03*
X615576Y318718D02*
D03*
X616968Y320110D02*
D03*
X618360Y321502D02*
D03*
X619752Y322894D02*
D03*
X621143Y324286D02*
D03*
X622536Y325678D02*
D03*
X623927Y327070D02*
D03*
D48*
X623927Y338762D02*
D03*
X622536Y340154D02*
D03*
X621143Y341546D02*
D03*
X619752Y342938D02*
D03*
X618360Y344330D02*
D03*
X616968Y345722D02*
D03*
X615576Y347114D02*
D03*
X614184Y348506D02*
D03*
X612792Y349898D02*
D03*
X611400Y351290D02*
D03*
X610008Y352682D02*
D03*
X608616Y354074D02*
D03*
X607224Y355466D02*
D03*
X605832Y356857D02*
D03*
X604440Y358249D02*
D03*
X603048Y359641D02*
D03*
X581612Y315934D02*
D03*
X583004Y314542D02*
D03*
X584396Y313150D02*
D03*
X585788Y311758D02*
D03*
X587180Y310367D02*
D03*
X588572Y308975D02*
D03*
X589964Y307583D02*
D03*
X591356Y306191D02*
D03*
X570477Y327070D02*
D03*
X580220Y317326D02*
D03*
X578828Y318718D02*
D03*
X577436Y320110D02*
D03*
X576045Y321502D02*
D03*
X574653Y322894D02*
D03*
X573261Y324286D02*
D03*
X571869Y325678D02*
D03*
D49*
X414961Y341142D02*
D03*
Y334842D02*
D03*
X305118Y313189D02*
D03*
Y306890D02*
D03*
X287402Y371260D02*
D03*
Y377559D02*
D03*
X280512D02*
D03*
Y371260D02*
D03*
X273622Y377559D02*
D03*
Y371260D02*
D03*
X197962Y344164D02*
D03*
Y337865D02*
D03*
D50*
X372441Y364370D02*
D03*
X363779Y360630D02*
D03*
Y368110D02*
D03*
D51*
X406105Y375787D02*
D03*
Y380118D02*
D03*
X412797Y375787D02*
D03*
Y380118D02*
D03*
X538807Y380118D02*
D03*
Y375787D02*
D03*
X532114Y380118D02*
D03*
Y375787D02*
D03*
X658071Y375787D02*
D03*
Y380118D02*
D03*
X664764Y375787D02*
D03*
Y380118D02*
D03*
X790748Y380118D02*
D03*
Y375787D02*
D03*
X784055Y380118D02*
D03*
Y375787D02*
D03*
D52*
X738189Y114173D02*
D03*
X746063D02*
D03*
X738189Y133858D02*
D03*
X746063D02*
D03*
X738189Y153543D02*
D03*
X746063D02*
D03*
X612205Y114173D02*
D03*
X620079D02*
D03*
X620079Y133858D02*
D03*
X612205D02*
D03*
X620079Y153543D02*
D03*
X612205Y153543D02*
D03*
X493898Y154230D02*
D03*
X486024D02*
D03*
X493898Y134545D02*
D03*
X486024D02*
D03*
X493898Y114860D02*
D03*
X486024D02*
D03*
X368110Y153543D02*
D03*
X360236D02*
D03*
X368110Y133858D02*
D03*
X360236D02*
D03*
X368110Y114173D02*
D03*
X360236Y114173D02*
D03*
X250787Y351575D02*
D03*
X242913D02*
D03*
X55118Y194882D02*
D03*
X62992Y194882D02*
D03*
X102362Y194882D02*
D03*
X94488D02*
D03*
X133858D02*
D03*
X141732D02*
D03*
X161417D02*
D03*
X169291D02*
D03*
X188976D02*
D03*
X196850D02*
D03*
X216535D02*
D03*
X224410D02*
D03*
X251969D02*
D03*
X244094D02*
D03*
D53*
X198031Y295835D02*
D03*
Y322835D02*
D03*
X208032Y295835D02*
D03*
Y322835D02*
D03*
X218032Y295835D02*
D03*
X218032Y322835D02*
D03*
X228031Y295835D02*
D03*
Y322835D02*
D03*
X238032Y295835D02*
D03*
Y322835D02*
D03*
X248031Y295835D02*
D03*
X248031Y322835D02*
D03*
X258032Y295835D02*
D03*
Y322835D02*
D03*
X268032Y295835D02*
D03*
Y322835D02*
D03*
X278031Y295835D02*
D03*
Y322835D02*
D03*
X288032Y295835D02*
D03*
Y322835D02*
D03*
D54*
X229528Y357874D02*
D03*
X229528Y375984D02*
D03*
X195669Y357874D02*
D03*
Y375984D02*
D03*
X148425D02*
D03*
X148425Y357874D02*
D03*
X182283Y375984D02*
D03*
X182283Y357874D02*
D03*
X101181Y375984D02*
D03*
X101181Y357874D02*
D03*
X135039Y375984D02*
D03*
X135039Y357874D02*
D03*
X53937Y375984D02*
D03*
Y357874D02*
D03*
X87795Y375984D02*
D03*
X87795Y357874D02*
D03*
X6693Y375984D02*
D03*
Y357874D02*
D03*
X40551Y375984D02*
D03*
Y357874D02*
D03*
D55*
X221457Y367323D02*
D03*
X203740D02*
D03*
X156496D02*
D03*
X174213D02*
D03*
X109252D02*
D03*
X126969D02*
D03*
X62008D02*
D03*
X79724D02*
D03*
X14764Y367323D02*
D03*
X32480D02*
D03*
D56*
X173228Y341024D02*
D03*
X173228Y331024D02*
D03*
X173228Y321024D02*
D03*
Y311024D02*
D03*
D57*
X816732Y301496D02*
D03*
Y311496D02*
D03*
Y321496D02*
D03*
Y331496D02*
D03*
X781802Y104411D02*
D03*
Y115311D02*
D03*
Y126211D02*
D03*
Y137111D02*
D03*
Y93511D02*
D03*
Y82611D02*
D03*
Y71711D02*
D03*
X793002Y109911D02*
D03*
Y98911D02*
D03*
Y120811D02*
D03*
Y131711D02*
D03*
Y142611D02*
D03*
Y88011D02*
D03*
Y77111D02*
D03*
Y66211D02*
D03*
X667017D02*
D03*
Y77111D02*
D03*
Y88011D02*
D03*
Y142611D02*
D03*
Y131711D02*
D03*
Y120811D02*
D03*
Y98911D02*
D03*
Y109911D02*
D03*
X655817Y71711D02*
D03*
Y82611D02*
D03*
Y93511D02*
D03*
Y137111D02*
D03*
Y126211D02*
D03*
Y115311D02*
D03*
Y104411D02*
D03*
X529833D02*
D03*
Y115311D02*
D03*
Y126211D02*
D03*
Y137111D02*
D03*
Y93511D02*
D03*
Y82611D02*
D03*
Y71711D02*
D03*
X541033Y109911D02*
D03*
Y98911D02*
D03*
Y120811D02*
D03*
Y131711D02*
D03*
Y142611D02*
D03*
Y88011D02*
D03*
Y77111D02*
D03*
Y66211D02*
D03*
X403849Y104411D02*
D03*
Y115311D02*
D03*
Y126211D02*
D03*
Y137111D02*
D03*
Y93511D02*
D03*
Y82611D02*
D03*
Y71711D02*
D03*
X415049Y109911D02*
D03*
Y98911D02*
D03*
Y120811D02*
D03*
Y131711D02*
D03*
Y142611D02*
D03*
Y88011D02*
D03*
Y77111D02*
D03*
Y66211D02*
D03*
D58*
X787402Y158911D02*
D03*
Y49911D02*
D03*
X661417D02*
D03*
Y158911D02*
D03*
X535433D02*
D03*
Y49911D02*
D03*
X409449Y158911D02*
D03*
Y49911D02*
D03*
D59*
X787402Y197011D02*
D03*
Y11811D02*
D03*
X661417D02*
D03*
Y197011D02*
D03*
X535433D02*
D03*
Y11811D02*
D03*
X409449Y197011D02*
D03*
Y11811D02*
D03*
X249213Y230472D02*
D03*
X335827D02*
D03*
X231890Y212441D02*
D03*
X12992D02*
D03*
X622047Y181102D02*
D03*
X828740Y368110D02*
D03*
X468504D02*
D03*
X744095Y23622D02*
D03*
X620079D02*
D03*
X492126D02*
D03*
X364173D02*
D03*
X15748Y196850D02*
D03*
X17717Y336614D02*
D03*
D60*
X317323Y232283D02*
D03*
X267717D02*
D03*
X267717Y210630D02*
D03*
X284252Y232283D02*
D03*
X284252Y210630D02*
D03*
X300787Y232283D02*
D03*
X300787Y210630D02*
D03*
X31496D02*
D03*
X213386D02*
D03*
Y232283D02*
D03*
X196850Y210630D02*
D03*
Y232283D02*
D03*
X180315Y210630D02*
D03*
Y232283D02*
D03*
X163779Y210630D02*
D03*
X163779Y232283D02*
D03*
X147244Y210630D02*
D03*
X147244Y232283D02*
D03*
X130709Y210630D02*
D03*
X130709Y232283D02*
D03*
X114173Y210630D02*
D03*
X114173Y232283D02*
D03*
X97638Y210630D02*
D03*
X97638Y232283D02*
D03*
X81102Y210630D02*
D03*
X81102Y232283D02*
D03*
X64567Y210630D02*
D03*
X64567Y232283D02*
D03*
X48031Y210630D02*
D03*
X48031Y232283D02*
D03*
D61*
X317323Y210630D02*
D03*
X31496Y232283D02*
D03*
D62*
X328898Y294961D02*
D03*
Y304961D02*
D03*
Y314961D02*
D03*
Y324961D02*
D03*
Y334961D02*
D03*
Y344961D02*
D03*
Y354961D02*
D03*
Y364961D02*
D03*
X318898D02*
D03*
Y354961D02*
D03*
Y344961D02*
D03*
Y334961D02*
D03*
Y324961D02*
D03*
Y314961D02*
D03*
Y304961D02*
D03*
Y294961D02*
D03*
D63*
X90237Y255906D02*
D03*
X51182D02*
D03*
X90237Y269292D02*
D03*
X51182D02*
D03*
X129921Y269291D02*
D03*
X168976D02*
D03*
X129921Y255906D02*
D03*
X168976D02*
D03*
X247716Y259842D02*
D03*
X208661D02*
D03*
X247716Y273228D02*
D03*
X208661D02*
D03*
X281871Y272441D02*
D03*
X320926D02*
D03*
X281871Y259055D02*
D03*
X320926D02*
D03*
M02*
