G04*
G04 #@! TF.GenerationSoftware,Altium Limited,Altium Designer,24.3.1 (35)*
G04*
G04 Layer_Color=32768*
%FSLAX25Y25*%
%MOIN*%
G70*
G04*
G04 #@! TF.SameCoordinates,03FD84D8-87D8-4BCB-B200-23DCDFDCD728*
G04*
G04*
G04 #@! TF.FilePolarity,Positive*
G04*
G01*
G75*
%ADD17C,0.00394*%
%ADD122C,0.00197*%
%ADD123C,0.00300*%
D17*
X723524Y182087D02*
X727264D01*
X725394Y180217D02*
X725394Y183957D01*
X350394Y158169D02*
X350394Y154429D01*
X348524Y156299D02*
X352264Y156299D01*
X350394Y160728D02*
Y164469D01*
X348524Y162598D02*
X352264D01*
X344488Y160728D02*
Y164469D01*
X342618Y162598D02*
X346358D01*
X344488Y154429D02*
Y158169D01*
X342618Y156299D02*
X346358D01*
X367126Y160728D02*
Y164469D01*
X365256Y162598D02*
X368996D01*
X367126Y154429D02*
Y158169D01*
X365256Y156299D02*
X368996Y156299D01*
X373031Y154429D02*
Y158169D01*
X371161Y156299D02*
X374902D01*
X373031Y160728D02*
Y164469D01*
X371161Y162598D02*
X374902D01*
X379232D02*
X382972D01*
X381102Y160728D02*
Y164469D01*
X334646Y202461D02*
X334646Y206201D01*
X332776Y204331D02*
X336516Y204331D01*
X342520Y202461D02*
X342520Y206201D01*
X340650Y204331D02*
X344390Y204331D01*
X350787Y202461D02*
Y206201D01*
X348917Y204331D02*
X352658D01*
X353937Y193405D02*
Y197146D01*
X352067Y195276D02*
X355807D01*
X357087Y202461D02*
Y206201D01*
X355217Y204331D02*
X358957D01*
X372146Y182677D02*
X375886D01*
X374016Y180807D02*
Y184547D01*
X381102Y179921D02*
Y183858D01*
X379134Y181890D02*
X383071Y181890D01*
X504921Y166437D02*
Y170177D01*
X503051Y168307D02*
X506791D01*
X497047Y166437D02*
Y170177D01*
X495177Y168307D02*
X498917D01*
X489173Y170177D02*
X489173Y166437D01*
X487303Y168307D02*
X491043D01*
X481299Y166437D02*
Y170177D01*
X479429Y168307D02*
X483169D01*
X731398D02*
X735138D01*
X733268Y166437D02*
Y170177D01*
X739272Y168307D02*
X743012D01*
X741142Y166437D02*
Y170177D01*
X747146Y168307D02*
X750886D01*
X749016Y166437D02*
Y170177D01*
X755020Y168307D02*
X758760D01*
X756890Y166437D02*
Y170177D01*
X473425Y166437D02*
Y170177D01*
X471555Y168307D02*
X475295Y168307D01*
X723524Y168307D02*
X727264D01*
X725394Y166437D02*
Y170177D01*
X489173Y180217D02*
Y183957D01*
X487303Y182087D02*
X491043D01*
X495177D02*
X498917D01*
X497047Y180217D02*
Y183957D01*
X504921Y180217D02*
Y183957D01*
X503051Y182087D02*
X506791Y182087D01*
X739272D02*
X743012D01*
X741142Y180217D02*
Y183957D01*
X749016Y180217D02*
Y183957D01*
X747146Y182087D02*
X750886D01*
X755020D02*
X758760D01*
X756890Y180217D02*
X756890Y183957D01*
X756004Y154527D02*
X759744D01*
X757874Y156398D02*
X757874Y152657D01*
X505905D02*
Y156398D01*
X504035Y154528D02*
X507776D01*
X468898Y122933D02*
Y126673D01*
X467028Y124803D02*
X470768D01*
X483268Y120177D02*
Y123917D01*
X481398Y122047D02*
X485138D01*
X482283Y114173D02*
X486221D01*
X484252Y112205D02*
Y116142D01*
X502984Y68602D02*
Y72342D01*
X501114Y70472D02*
X504854D01*
X502984Y81595D02*
Y85335D01*
X501114Y83465D02*
X504854D01*
X517717Y79724D02*
Y83661D01*
X515748Y81693D02*
X519685D01*
X494126Y72146D02*
Y76083D01*
X492158Y74114D02*
X496095D01*
X483366Y83661D02*
X487106D01*
X485236Y81791D02*
Y85532D01*
X474409Y78445D02*
Y82185D01*
X472539Y80315D02*
X476279D01*
X480413Y52165D02*
X484154D01*
X482283Y50295D02*
Y54035D01*
X469291Y50394D02*
Y65748D01*
X450000D02*
X469291D01*
X450000Y50394D02*
Y65748D01*
Y50394D02*
X469291D01*
X466732D02*
X469291Y52953D01*
X734252Y50295D02*
Y54035D01*
X732382Y52165D02*
X736122D01*
X721260Y50394D02*
Y65748D01*
X701968D02*
X721260D01*
X701968Y50394D02*
Y65748D01*
Y50394D02*
X721260D01*
X718701D02*
X721260Y52953D01*
X753083Y70472D02*
X756823D01*
X754953Y68602D02*
Y72342D01*
X753083Y83465D02*
X756823D01*
X754953Y81595D02*
Y85335D01*
X767717Y81693D02*
X771654D01*
X769685Y79724D02*
Y83661D01*
X723721Y80315D02*
X727461D01*
X725591Y78445D02*
Y82185D01*
X744126Y74114D02*
X748063D01*
X746095Y72146D02*
Y76083D01*
X737205Y81595D02*
Y85335D01*
X735335Y83465D02*
X739075D01*
X733366Y122047D02*
X737106D01*
X735236Y120177D02*
Y123917D01*
X736221Y112205D02*
Y116142D01*
X734252Y114173D02*
X738189D01*
X612213Y130876D02*
X616150D01*
X614182Y128908D02*
Y132845D01*
X612205Y98425D02*
X616142D01*
X614173Y96457D02*
Y100394D01*
X620177Y91535D02*
X623917D01*
X622047Y89665D02*
X622047Y93405D01*
X620177Y105315D02*
X623917Y105315D01*
X622047Y103445D02*
X622047Y107185D01*
X620186Y123986D02*
X623926D01*
X622056Y122116D02*
Y125856D01*
X620177Y137598D02*
X623917D01*
X622047Y135728D02*
Y139469D01*
X641732Y109547D02*
X645669D01*
X643701Y107579D02*
Y111516D01*
X631890Y120768D02*
X635827D01*
X633858Y118799D02*
Y122736D01*
X563091Y87598D02*
X566831D01*
X564961Y85728D02*
Y89468D01*
X563091Y101378D02*
X566831D01*
X564961Y99508D02*
Y103248D01*
X570866Y94488D02*
X574803D01*
X572835Y92520D02*
Y96457D01*
X766634Y61024D02*
X770374D01*
X768504Y59153D02*
Y62894D01*
X766634Y66929D02*
X770374D01*
X768504Y65059D02*
Y68799D01*
X640650Y61024D02*
X644390D01*
X642520Y59153D02*
Y62894D01*
X640650Y66929D02*
X644390D01*
X642520Y65059D02*
Y68799D01*
X390551Y59153D02*
Y62894D01*
X388681Y61024D02*
X392421D01*
X390551Y65059D02*
Y68799D01*
X388681Y66929D02*
X392421D01*
X516535Y59153D02*
Y62894D01*
X514665Y61024D02*
X518405Y61024D01*
X516535Y65059D02*
Y68799D01*
X514665Y66929D02*
X518405D01*
X362205Y128740D02*
Y132677D01*
X360236Y130709D02*
X364173D01*
X362205Y96457D02*
Y100394D01*
X360236Y98425D02*
X364173D01*
X370079Y89665D02*
Y93405D01*
X368209Y91535D02*
X371949D01*
X370079Y103445D02*
Y107185D01*
X368209Y105315D02*
X371949D01*
X370079Y121949D02*
Y125689D01*
X368209Y123819D02*
X371949D01*
X370079Y135728D02*
Y139469D01*
X368209Y137598D02*
X371949D01*
X381890Y118799D02*
Y122736D01*
X379921Y120768D02*
X383858D01*
X391732Y107579D02*
Y111516D01*
X389764Y109547D02*
X393701D01*
X438976Y127264D02*
Y131004D01*
X437106Y129134D02*
X440846D01*
X444882Y127165D02*
X448819D01*
X446850Y125197D02*
Y129134D01*
X454724Y127264D02*
Y131004D01*
X452854Y129134D02*
X456595D01*
X564961Y126476D02*
Y130217D01*
X563091Y128347D02*
X566831D01*
X570866Y126378D02*
X574803D01*
X572835Y124409D02*
Y128346D01*
X580709Y126476D02*
Y130217D01*
X578839Y128347D02*
X582579D01*
X689823Y128740D02*
X693563D01*
X691693Y126870D02*
Y130610D01*
X699567Y124803D02*
Y128740D01*
X697598Y126772D02*
X701535D01*
X705571Y128740D02*
X709311D01*
X707441Y126870D02*
Y130610D01*
X719390Y124409D02*
X723130D01*
X721260Y122539D02*
Y126279D01*
X437106Y142913D02*
X440846D01*
X438976Y141043D02*
Y144783D01*
X444980Y142913D02*
X448721D01*
X446850Y141043D02*
Y144783D01*
X462598Y140945D02*
Y144882D01*
X460630Y142913D02*
X464567D01*
X452854Y142913D02*
X456595D01*
X454724Y141043D02*
Y144783D01*
X563091Y142126D02*
X566831D01*
X564961Y140256D02*
Y143996D01*
X570965Y142126D02*
X574705D01*
X572835Y140256D02*
Y143996D01*
X578839Y142126D02*
X582579D01*
X580709Y140256D02*
Y143996D01*
X588582Y140157D02*
Y144094D01*
X586614Y142126D02*
X590551D01*
X691693Y140650D02*
Y144390D01*
X689823Y142520D02*
X693563D01*
X699567Y140650D02*
Y144390D01*
X697697Y142520D02*
X701437D01*
X707441Y140650D02*
Y144390D01*
X705571Y142520D02*
X709311D01*
X713346Y142519D02*
X717283D01*
X715315Y140551D02*
Y144488D01*
X598032Y169685D02*
Y173622D01*
X596063Y171653D02*
X600000D01*
X596161Y159843D02*
X599902D01*
X598032Y157973D02*
Y161713D01*
X393701Y187500D02*
Y191240D01*
X391831Y189370D02*
X395571D01*
X468209Y195669D02*
X471949D01*
X470079Y193799D02*
Y197539D01*
X519685Y187500D02*
Y191240D01*
X517815Y189370D02*
X521555D01*
X597736Y194882D02*
X601476D01*
X599606Y193012D02*
Y196752D01*
X643799Y189370D02*
X647539D01*
X645669Y187500D02*
Y191240D01*
X425984Y75242D02*
Y78982D01*
X424114Y77112D02*
X427854D01*
X425984Y86159D02*
Y89899D01*
X424114Y88029D02*
X427854D01*
X424114Y98945D02*
X427854D01*
X425984Y97075D02*
Y100815D01*
X425984Y107992D02*
Y111732D01*
X424114Y109862D02*
X427854D01*
X425984Y118908D02*
Y122648D01*
X424114Y120778D02*
X427854D01*
X425984Y129824D02*
Y133565D01*
X424114Y131694D02*
X427854D01*
X425984Y140741D02*
Y144481D01*
X424114Y142611D02*
X427854D01*
X551968Y75242D02*
Y78982D01*
X550098Y77112D02*
X553839D01*
X551968Y86159D02*
Y89899D01*
X550098Y88029D02*
X553839D01*
X550098Y98945D02*
X553839D01*
X551968Y97075D02*
Y100815D01*
X551968Y107992D02*
X551968Y111732D01*
X550098Y109862D02*
X553839D01*
X551968Y118908D02*
Y122648D01*
X550098Y120778D02*
X553839D01*
X551968Y129824D02*
Y133565D01*
X550098Y131694D02*
X553839D01*
X551968Y140741D02*
X551968Y144481D01*
X550098Y142611D02*
X553839D01*
X676083Y77112D02*
X679823Y77112D01*
X677953Y75242D02*
Y78982D01*
X676083Y88029D02*
X679823Y88029D01*
X677953Y86159D02*
Y89899D01*
X676083Y98945D02*
X679823D01*
X677953Y97075D02*
Y100815D01*
X676083Y109862D02*
X679823D01*
X677953Y107992D02*
Y111732D01*
X676083Y120778D02*
X679823D01*
X677953Y118908D02*
Y122648D01*
X676083Y131694D02*
X679823D01*
X677953Y129824D02*
Y133565D01*
X676083Y142611D02*
X679823D01*
X677953Y140741D02*
Y144481D01*
X816929Y121358D02*
Y125098D01*
X815059Y123228D02*
X818799D01*
X822835Y121260D02*
X826772D01*
X824803Y119291D02*
Y123228D01*
X832677Y121358D02*
Y125098D01*
X830807Y123228D02*
X834547D01*
X816929Y99508D02*
Y103248D01*
X815059Y101378D02*
X818799D01*
X824803Y92520D02*
Y96457D01*
X822835Y94488D02*
X826772D01*
X816929Y85728D02*
Y89468D01*
X815059Y87598D02*
X818799D01*
X802067Y77112D02*
X805807D01*
X803937Y75242D02*
Y78982D01*
X802067Y88029D02*
X805807D01*
X803937Y86159D02*
Y89899D01*
X802067Y98945D02*
X805807D01*
X803937Y97075D02*
Y100815D01*
X802067Y109862D02*
X805807D01*
X803937Y107992D02*
Y111732D01*
X802067Y120778D02*
X805807D01*
X803937Y122648D02*
X803937Y118908D01*
X802067Y131694D02*
X805807D01*
X803937Y129824D02*
Y133565D01*
X802067Y142611D02*
X805807Y142611D01*
X803937Y140741D02*
Y144481D01*
X815059Y137008D02*
X818799D01*
X816929Y135138D02*
Y138878D01*
X822933Y137008D02*
X826673D01*
X824803Y135138D02*
Y138878D01*
X830807Y137008D02*
X834547D01*
X832677Y135138D02*
Y138878D01*
X840551Y135039D02*
Y138976D01*
X838582Y137008D02*
X842519D01*
X722441Y193996D02*
Y197736D01*
X720571Y195866D02*
X724311D01*
X771654Y187500D02*
Y191240D01*
X769783Y189370D02*
X773524D01*
X128740Y333760D02*
Y337500D01*
X126870Y335630D02*
X130610D01*
X112992Y333760D02*
Y337500D01*
X111122Y335630D02*
X114862D01*
X97244Y333760D02*
Y337500D01*
X95374Y335630D02*
X99114D01*
X97244Y341634D02*
Y345374D01*
X95374Y343504D02*
X99114D01*
X112992Y341634D02*
Y345374D01*
X111122Y343504D02*
X114862D01*
X128740Y341634D02*
Y345374D01*
X126870Y343504D02*
X130610D01*
X161221Y333760D02*
Y337500D01*
X159350Y335630D02*
X163091D01*
X161221Y341634D02*
X161221Y345374D01*
X159350Y343504D02*
X163091D01*
X148425Y341634D02*
Y345374D01*
X146555Y343504D02*
X150295Y343504D01*
X148425Y333760D02*
Y337500D01*
X146555Y335630D02*
X150295D01*
X61811Y333760D02*
Y337500D01*
X59941Y335630D02*
X63681D01*
X77559Y333760D02*
Y337500D01*
X75689Y335630D02*
X79429D01*
X77559Y341634D02*
Y345374D01*
X75689Y343504D02*
X79429D01*
X61811Y341634D02*
Y345374D01*
X59941Y343504D02*
X63681D01*
X102854Y316929D02*
X106595Y316929D01*
X104724Y315059D02*
Y318799D01*
X102854Y324016D02*
X106595D01*
X104724Y322146D02*
Y325886D01*
X84547Y282480D02*
X88287D01*
X86417Y280610D02*
Y284350D01*
X84547Y289370D02*
X88287D01*
X86417Y287500D02*
Y291240D01*
X84547Y296260D02*
X88287D01*
X86417Y294390D02*
Y298130D01*
X84547Y303150D02*
X88287D01*
X86417Y301279D02*
Y305020D01*
X84744Y310039D02*
X88484D01*
X86614Y308169D02*
Y311910D01*
X84744Y316929D02*
X88484D01*
X86614Y315059D02*
Y318799D01*
X61516Y308268D02*
X65256D01*
X63386Y306398D02*
Y310138D01*
X61516Y314173D02*
X65256Y314173D01*
X63386Y312303D02*
Y316043D01*
X29528Y191043D02*
Y194783D01*
X27657Y192913D02*
X31398D01*
X37402Y191043D02*
Y194783D01*
X35531Y192913D02*
X39272D01*
X45276Y191043D02*
Y194783D01*
X43406Y192913D02*
X47146D01*
X55118Y192913D02*
X59055D01*
X57087Y190945D02*
Y194882D01*
X68898Y191043D02*
X68898Y194783D01*
X67027Y192913D02*
X70768D01*
X80709Y191043D02*
Y194783D01*
X78839Y192913D02*
X82579D01*
X90650D02*
X94390D01*
X92520Y191043D02*
Y194783D01*
X102362Y192913D02*
X106299D01*
X104331Y190945D02*
Y194882D01*
X114272Y192913D02*
X118012D01*
X116142Y191043D02*
Y194783D01*
X122146Y192913D02*
X125886Y192913D01*
X124016Y191043D02*
Y194783D01*
X135925Y194882D02*
X139665D01*
X137795Y193012D02*
Y196752D01*
X246161Y194882D02*
X249902Y194882D01*
X248031Y193012D02*
Y196752D01*
X218602Y194882D02*
X222342D01*
X220472Y193012D02*
Y196752D01*
X191043Y194882D02*
X194783D01*
X192913Y193012D02*
Y196752D01*
X163484Y194882D02*
X167224D01*
X165354Y193012D02*
Y196752D01*
X143799Y273228D02*
X147539D01*
X145669Y275098D02*
X145669Y271358D01*
X143799Y260433D02*
X147539D01*
X145669Y258563D02*
X145669Y262303D01*
X152657Y260433D02*
X156398D01*
X154528Y258563D02*
Y262303D01*
X152657Y273228D02*
X156398D01*
X154528Y271358D02*
Y275098D01*
X188976Y261417D02*
Y265354D01*
X187008Y263386D02*
X190945D01*
X188976Y272146D02*
Y275886D01*
X187106Y274016D02*
X190847D01*
X143799Y245079D02*
X147539D01*
X145669Y243209D02*
Y246949D01*
X127953Y245079D02*
X131890D01*
X129921Y243110D02*
Y247047D01*
X63484Y285630D02*
X67224D01*
X65354Y283760D02*
Y287500D01*
X69390Y285630D02*
X73130D01*
X71260Y283760D02*
Y287500D01*
X69390Y291929D02*
X73130D01*
X71260Y290059D02*
Y293799D01*
X63484Y291929D02*
X67224D01*
X65354Y290059D02*
Y293799D01*
X47539Y291929D02*
X51279D01*
X49409Y290059D02*
Y293799D01*
X53445Y291929D02*
X57185D01*
X55315Y290059D02*
Y293799D01*
X53445Y285630D02*
X57185D01*
X55315Y283760D02*
Y287500D01*
X47539Y285630D02*
X51279D01*
X49409Y283760D02*
Y287500D01*
X33465Y289370D02*
Y293307D01*
X31496Y291339D02*
X35433D01*
X32480Y296358D02*
Y300098D01*
X30610Y298228D02*
X34350D01*
X15157Y306398D02*
Y310138D01*
X13287Y308268D02*
X17028D01*
X15157Y312303D02*
Y316043D01*
X13287Y314173D02*
X17028Y314173D01*
X24016Y309350D02*
X24016Y313091D01*
X22146Y311221D02*
X25886D01*
X46063Y333760D02*
Y337500D01*
X44193Y335630D02*
X47933D01*
X46063Y341634D02*
Y345374D01*
X44193Y343504D02*
X47933D01*
X134252Y322146D02*
Y325886D01*
X132382Y324016D02*
X136122D01*
X132185Y316929D02*
X135925D01*
X134055Y315059D02*
Y318799D01*
X158760Y311024D02*
X162500D01*
X160630Y309154D02*
Y312894D01*
X158760Y320866D02*
X162500D01*
X160630Y318996D02*
Y322736D01*
X19685Y263780D02*
X23622Y263780D01*
X21654Y261811D02*
Y265748D01*
X200862Y367575D02*
Y371315D01*
X198992Y369445D02*
X202732D01*
X216610Y367575D02*
Y371315D01*
X214740Y369445D02*
X218480D01*
X232358Y367575D02*
Y371315D01*
X230488Y369445D02*
X234228D01*
X146555Y369094D02*
X150295D01*
X148425Y367224D02*
Y370965D01*
X179921Y367224D02*
Y370965D01*
X178051Y369094D02*
X181791D01*
X164173Y367224D02*
Y370965D01*
X162303Y369094D02*
X166043D01*
X128740Y367224D02*
Y370965D01*
X126870Y369094D02*
X130610D01*
X112992Y367224D02*
Y370965D01*
X111122Y369094D02*
X114862D01*
X97244Y367224D02*
Y370965D01*
X95374Y369094D02*
X99114D01*
X30709Y367028D02*
Y370768D01*
X28839Y368898D02*
X32579D01*
X44193Y369094D02*
X47933D01*
X46063Y367224D02*
Y370965D01*
X61811Y367224D02*
Y370965D01*
X59941Y369094D02*
X63681D01*
X77559Y367224D02*
Y370965D01*
X75689Y369094D02*
X79429D01*
X46063Y355315D02*
Y359252D01*
X44094Y357283D02*
X48031D01*
X61811Y355315D02*
Y359252D01*
X59842Y357283D02*
X63779D01*
X77559Y355315D02*
Y359252D01*
X75590Y357283D02*
X79528D01*
X97244Y355315D02*
Y359252D01*
X95276Y357283D02*
X99213D01*
X112992Y355315D02*
Y359252D01*
X111024Y357283D02*
X114961D01*
X128740Y355315D02*
Y359252D01*
X126772Y357283D02*
X130709D01*
X148425Y355315D02*
Y359252D01*
X146457Y357283D02*
X150394D01*
X164173Y355315D02*
Y359252D01*
X162205Y357283D02*
X166142D01*
X179921Y355315D02*
Y359252D01*
X177953Y357283D02*
X181890D01*
X200862Y355665D02*
Y359602D01*
X198894Y357634D02*
X202831D01*
X216610Y355665D02*
Y359602D01*
X214642Y357634D02*
X218579D01*
X232358Y355665D02*
Y359602D01*
X230390Y357634D02*
X234327D01*
X200862Y334110D02*
Y337850D01*
X198992Y335980D02*
X202732D01*
X185827Y333760D02*
X185827Y337500D01*
X183957Y335630D02*
X187697D01*
X185827Y341634D02*
Y345374D01*
X183957Y343504D02*
X187697D01*
X200862Y341984D02*
Y345724D01*
X198992Y343854D02*
X202732D01*
X216610Y334110D02*
Y337850D01*
X214740Y335980D02*
X218480D01*
X216610Y341984D02*
X216610Y345724D01*
X214740Y343854D02*
X218480Y343854D01*
X232358Y341984D02*
Y345724D01*
X230488Y343854D02*
X234228D01*
X232358Y334110D02*
Y337850D01*
X230488Y335980D02*
X234228D01*
X218602Y301181D02*
X222342D01*
X220472Y299311D02*
Y303051D01*
X239110Y308641D02*
Y312578D01*
X237141Y310609D02*
X241078D01*
X258815Y300170D02*
X262555Y300170D01*
X260685Y298300D02*
Y302040D01*
X258815Y307130D02*
X262555D01*
X260685Y305259D02*
X260685Y309000D01*
X258815Y314089D02*
X262555D01*
X260685Y312219D02*
X260685Y315959D01*
X260630Y318996D02*
Y322736D01*
X258760Y320866D02*
X262500D01*
X296457Y313484D02*
Y317224D01*
X294587Y315354D02*
X298327D01*
X771654Y340650D02*
Y344390D01*
X769783Y342520D02*
X773524D01*
X771654Y348524D02*
Y352264D01*
X769783Y350394D02*
X773524D01*
X787402Y340650D02*
Y344390D01*
X785532Y342520D02*
X789272D01*
X787402Y348524D02*
Y352264D01*
X785532Y350394D02*
X789272D01*
X803150Y348524D02*
Y352264D01*
X801280Y350394D02*
X805020D01*
X803150Y340650D02*
X803150Y344390D01*
X801280Y342520D02*
X805020Y342520D01*
X677165Y348524D02*
Y352264D01*
X675295Y350394D02*
X679035D01*
X677165Y340650D02*
Y344390D01*
X675295Y342520D02*
X679035D01*
X661417Y340650D02*
Y344390D01*
X659547Y342520D02*
X663287D01*
X661417Y348524D02*
Y352264D01*
X659547Y350394D02*
X663287D01*
X645669Y348524D02*
Y352264D01*
X643799Y350394D02*
X647539D01*
X645669Y340650D02*
Y344390D01*
X643799Y342520D02*
X647539D01*
X647362Y277953D02*
X669173D01*
Y326772D01*
X647362D02*
X669173D01*
X647362Y277953D02*
Y326772D01*
X407581Y342519D02*
X411321D01*
X409451Y340650D02*
Y344390D01*
X391833Y342519D02*
X395573Y342519D01*
X393703Y340650D02*
Y344390D01*
X391833Y350394D02*
X395573D01*
X393703Y348523D02*
Y352264D01*
X407581Y350394D02*
X411321Y350394D01*
X409451Y348523D02*
Y352264D01*
X423329Y350394D02*
X427069Y350394D01*
X425199Y348523D02*
X425199Y352264D01*
X423329Y342519D02*
X427069D01*
X425199Y340650D02*
Y344390D01*
X544515Y346555D02*
Y350295D01*
X542645Y348425D02*
X546385D01*
X544515Y338681D02*
Y342421D01*
X542645Y340551D02*
X546385D01*
X528767Y338681D02*
Y342421D01*
X526897Y340551D02*
X530637D01*
X528767Y346555D02*
Y350295D01*
X526897Y348425D02*
X530637D01*
X513019Y346555D02*
Y350295D01*
X511149Y348425D02*
X514889Y348425D01*
X513019Y338681D02*
Y342421D01*
X511149Y340551D02*
X514889D01*
X462402Y300098D02*
X462402Y303839D01*
X460532Y301969D02*
X464272Y301969D01*
X461417Y294882D02*
X465354D01*
X463386Y292913D02*
Y296850D01*
X442028Y292840D02*
X445768D01*
X443898Y290969D02*
Y294710D01*
X447933Y292840D02*
X451673D01*
X449803Y290969D02*
Y294710D01*
X444980Y301698D02*
X448721D01*
X446850Y299828D02*
Y303568D01*
X432382Y298425D02*
X436122D01*
X434252Y296555D02*
Y300295D01*
X491142Y313681D02*
Y317421D01*
X489272Y315551D02*
X493012Y315551D01*
X491142Y307776D02*
Y311516D01*
X489272Y309646D02*
X493012D01*
X482874Y293799D02*
X482874Y297539D01*
X481004Y295669D02*
X484744Y295669D01*
X476968Y293799D02*
Y297539D01*
X475098Y295669D02*
X478839D01*
X476968Y287500D02*
Y291240D01*
X475098Y289370D02*
X478839D01*
X482874Y287500D02*
Y291240D01*
X481004Y289370D02*
X484744D01*
X498327Y289370D02*
X502067Y289370D01*
X500197Y287500D02*
Y291240D01*
X492421Y289370D02*
X496162Y289370D01*
X494291Y287500D02*
X494291Y291240D01*
X492421Y295669D02*
X496162D01*
X494291Y293799D02*
X494291Y297539D01*
X498327Y295669D02*
X502067Y295669D01*
X500197Y297539D02*
X500197Y293799D01*
X446851Y276378D02*
X446851Y272441D01*
X444882Y274409D02*
X448819Y274410D01*
X354331Y265748D02*
X358268D01*
X356299Y267717D02*
X356299Y263779D01*
X365551Y297244D02*
X369488D01*
X367520Y295276D02*
Y299213D01*
X366732Y302264D02*
X366732Y306004D01*
X364862Y304134D02*
X368602D01*
X347835Y304134D02*
X351772D01*
X349803Y302165D02*
Y306102D01*
X346457Y318898D02*
Y322835D01*
X344488Y320866D02*
X348425D01*
X342520Y355315D02*
Y359252D01*
X340551Y357283D02*
X344488D01*
X350394Y355315D02*
Y359252D01*
X348425Y357283D02*
X352362D01*
X391833Y375984D02*
X395573D01*
X393703Y374114D02*
Y377854D01*
X407581Y375984D02*
X411321D01*
X409451Y374114D02*
Y377854D01*
X423329Y375984D02*
X427069D01*
X425199Y374114D02*
Y377854D01*
X513019Y372146D02*
Y375886D01*
X511149Y374016D02*
X514889D01*
X528767Y372146D02*
Y375886D01*
X526897Y374016D02*
X530637D01*
X544515Y372146D02*
Y375886D01*
X542645Y374016D02*
X546385D01*
X645669Y374114D02*
Y377854D01*
X643799Y375984D02*
X647539Y375984D01*
X661417Y374114D02*
X661417Y377854D01*
X659547Y375984D02*
X663287Y375984D01*
X677165Y374114D02*
Y377854D01*
X675295Y375984D02*
X679035D01*
X787402Y374114D02*
Y377854D01*
X785532Y375984D02*
X789272D01*
X771654Y374114D02*
Y377854D01*
X769783Y375984D02*
X773524D01*
X803150Y374114D02*
Y377854D01*
X801280Y375984D02*
X805020D01*
X423231Y364173D02*
X427168D01*
X425199Y362205D02*
Y366142D01*
X407482Y364173D02*
X411419D01*
X409451Y362205D02*
Y366142D01*
X391734Y364173D02*
X395671D01*
X393703Y362205D02*
Y366142D01*
X544515Y364173D02*
X544515Y360236D01*
X542547Y362205D02*
X546484D01*
X528767Y360236D02*
Y364173D01*
X526799Y362205D02*
X530736D01*
X513019Y360236D02*
X513019Y364173D01*
X511051Y362205D02*
X514988D01*
X803150Y362205D02*
Y366142D01*
X801181Y364173D02*
X805118D01*
X787402Y362205D02*
Y366142D01*
X785433Y364173D02*
X789370D01*
X771654Y362205D02*
Y366142D01*
X769685Y364173D02*
X773622D01*
X677165Y362205D02*
Y366142D01*
X675197Y364173D02*
X679134D01*
X661417Y362205D02*
Y366142D01*
X659449Y364173D02*
X663386D01*
X645669Y362205D02*
Y366142D01*
X643701Y364173D02*
X647638D01*
X700197Y315059D02*
Y318799D01*
X698327Y316929D02*
X702067D01*
X710039Y315059D02*
Y318799D01*
X708169Y316929D02*
X711909D01*
X719882Y315059D02*
Y318799D01*
X718012Y316929D02*
X721752D01*
X700197Y330610D02*
X700197Y326870D01*
X698327Y328740D02*
X702067D01*
X710039Y326870D02*
Y330610D01*
X708169Y328740D02*
X711909D01*
X718012D02*
X721752Y328740D01*
X719882Y326870D02*
X719882Y330610D01*
X730709Y326870D02*
Y330610D01*
X728839Y328740D02*
X732579D01*
X737402Y326870D02*
Y330610D01*
X735532Y328740D02*
X739272D01*
X785827Y294980D02*
Y298721D01*
X783957Y296850D02*
X787697D01*
X784646Y309055D02*
X788583D01*
X786614Y307087D02*
Y311024D01*
X829724Y332677D02*
X833661D01*
X831693Y330709D02*
Y334646D01*
X825787Y308169D02*
Y311910D01*
X823917Y310039D02*
X827658D01*
X824804Y285039D02*
X828741D01*
X826772Y283070D02*
Y287008D01*
X829724Y300197D02*
X833661D01*
X831693Y298228D02*
Y302165D01*
X832677Y308169D02*
Y311910D01*
X830807Y310039D02*
X834547D01*
X825787Y321161D02*
Y324902D01*
X823917Y323031D02*
X827658D01*
X745177Y339764D02*
X748917D01*
X747047Y337894D02*
Y341634D01*
X752067Y339764D02*
X755807D01*
X753937Y337894D02*
Y341634D01*
X623327Y314567D02*
X627067D01*
X625197Y312697D02*
X625197Y316437D01*
X630183Y314530D02*
X633923Y314530D01*
X632053Y316400D02*
X632053Y312660D01*
X639013Y312660D02*
Y316400D01*
X637143Y314530D02*
X640883D01*
X671752Y288189D02*
X675492D01*
X673622Y286319D02*
Y290059D01*
X124016Y347539D02*
Y351279D01*
X122146Y349410D02*
X125886D01*
X785039Y311909D02*
Y315650D01*
X783169Y313779D02*
X786909D01*
X767969Y306158D02*
X770614Y308803D01*
X767969Y308803D02*
X770614Y306158D01*
X767969Y296204D02*
X770614Y293560D01*
X767969Y293560D02*
X770614Y296204D01*
X742618Y323031D02*
X746358D01*
X744488Y321161D02*
Y324902D01*
X742618Y316142D02*
X746358Y316142D01*
X744488Y314272D02*
Y318012D01*
X734646Y301378D02*
X738583D01*
X736614Y299410D02*
Y303346D01*
X711122Y290551D02*
X714862D01*
X712992Y288681D02*
Y292421D01*
X711122Y312205D02*
X714862Y312205D01*
X712992Y310335D02*
Y314075D01*
X715059Y301378D02*
X718799D01*
X716929Y299508D02*
Y303248D01*
X708071Y301378D02*
X712008D01*
X710039Y299410D02*
Y303346D01*
X640945Y328740D02*
X644882Y328740D01*
X642913Y326772D02*
X642913Y330709D01*
X634997Y327896D02*
Y331637D01*
X633127Y329766D02*
X636868D01*
X624662Y374944D02*
X627307Y372300D01*
X624662Y372300D02*
X627307Y374944D01*
X619502Y369671D02*
X622147Y367027D01*
X619502D02*
X622147Y369671D01*
X614581Y364750D02*
X617225Y362105D01*
X614581Y362105D02*
X617225Y364750D01*
X583323Y367858D02*
X585968Y365213D01*
X583323Y365213D02*
X585968Y367858D01*
X595810Y331524D02*
X598594Y334308D01*
X595810Y334308D02*
X598594Y331524D01*
X559966Y339353D02*
Y343093D01*
X558096Y341223D02*
X561836D01*
X551038D02*
X554975D01*
X553006Y339255D02*
Y343192D01*
X585138Y296457D02*
X588878D01*
X587008Y294587D02*
X587008Y298327D01*
X393287Y331566D02*
X397224D01*
X395256Y329598D02*
Y333535D01*
X403150Y350886D02*
Y354626D01*
X401279Y352756D02*
X405020D01*
X403150Y343996D02*
Y347736D01*
X401279Y345866D02*
X405020D01*
X414961Y336122D02*
Y339862D01*
X413091Y337992D02*
X416831D01*
X417323Y318996D02*
Y322736D01*
X415453Y320866D02*
X419193D01*
X371752Y340945D02*
X375492D01*
X373622Y339075D02*
Y342815D01*
X371752Y334055D02*
X375492D01*
X373622Y332185D02*
Y335925D01*
X371752Y327165D02*
X375492D01*
X373622Y325295D02*
Y329035D01*
X368110Y362402D02*
Y366339D01*
X366142Y364370D02*
X370079D01*
X353346Y358563D02*
Y362303D01*
X351476Y360433D02*
X355217Y360433D01*
X353346Y366437D02*
Y370177D01*
X351476Y368307D02*
X355217D01*
X616142Y143602D02*
X616142Y139862D01*
X614272Y141732D02*
X618012D01*
X742126Y120177D02*
Y123917D01*
X740256Y122047D02*
X743996Y122047D01*
X742126Y139862D02*
Y143602D01*
X740256Y141732D02*
X743996D01*
X742126Y159547D02*
Y163287D01*
X740256Y161417D02*
X743996D01*
X616142Y123917D02*
X616142Y120177D01*
X614272Y122047D02*
X618012D01*
X616142Y159547D02*
Y163287D01*
X614272Y161417D02*
X618012Y161417D01*
X488091Y162104D02*
X491831D01*
X489961Y160234D02*
X489961Y163975D01*
X488091Y142419D02*
X491831Y142419D01*
X489961Y140549D02*
Y144290D01*
X488091Y122734D02*
X491831D01*
X489961Y120864D02*
Y124604D01*
X362303Y161417D02*
X366043Y161417D01*
X364173Y159547D02*
Y163287D01*
X362303Y141732D02*
X366043D01*
X364173Y139862D02*
Y143602D01*
X362303Y122047D02*
X366043Y122047D01*
X364173Y120177D02*
Y123917D01*
X303248Y310039D02*
X306988D01*
X305118Y308169D02*
Y311910D01*
X285531Y374410D02*
X289272D01*
X287402Y372539D02*
Y376279D01*
X278642Y374410D02*
X282382D01*
X280512Y372539D02*
Y376279D01*
X271752Y374410D02*
X275492D01*
X273622Y372539D02*
Y376279D01*
X290158Y336713D02*
X290158Y340453D01*
X288287Y338583D02*
X292028D01*
X277362Y336713D02*
Y340453D01*
X275492Y338583D02*
X279232D01*
X246850Y349606D02*
Y353543D01*
X244882Y351575D02*
X248819D01*
X196092Y341015D02*
X199832D01*
X197962Y339145D02*
Y342885D01*
X190945Y387795D02*
X234252D01*
X190945Y354331D02*
X234252D01*
X190945D02*
Y387795D01*
X234252Y354331D02*
Y387795D01*
X187008Y354331D02*
Y387795D01*
X143701Y354331D02*
Y387795D01*
Y354331D02*
X187008D01*
X143701Y387795D02*
X187008D01*
X139764Y387795D02*
X139764Y354331D01*
X96457Y387795D02*
X96457Y354331D01*
X139764D01*
X96457Y387795D02*
X139764D01*
X92520Y354331D02*
Y387795D01*
X49213Y354331D02*
Y387795D01*
Y354331D02*
X92520D01*
X49213Y387795D02*
X92520D01*
X45276Y354331D02*
Y387795D01*
X1969Y354331D02*
Y387795D01*
Y354331D02*
X45276D01*
X1969Y387795D02*
X45276D01*
X366535Y359449D02*
Y363386D01*
X364567Y361417D02*
X368504D01*
X366535Y370571D02*
Y374311D01*
X364665Y372441D02*
X368406D01*
X742618Y286614D02*
X746358D01*
X744488Y284744D02*
Y288484D01*
X366693Y331102D02*
X370630Y331102D01*
X368661Y329134D02*
Y333071D01*
X730512Y149653D02*
X733071Y152213D01*
X730512Y152213D02*
X749803Y152213D01*
Y136858D02*
Y152213D01*
X730512Y136858D02*
X749803D01*
X730512D02*
X730512Y152213D01*
X687992Y12894D02*
Y16634D01*
X686122Y14764D02*
X689862D01*
X686122Y32480D02*
X689862D01*
X687992Y30610D02*
Y34350D01*
X699902Y32480D02*
X703642D01*
X701772Y30610D02*
Y34350D01*
X693012Y32480D02*
X696752D01*
X694882Y30610D02*
X694882Y34350D01*
X693012Y14764D02*
X696752D01*
X694882Y12894D02*
Y16634D01*
X700787Y14764D02*
X704724D01*
X702756Y12795D02*
Y16732D01*
X713681Y32480D02*
X717421D01*
X715551Y30610D02*
Y34350D01*
X706791Y32480D02*
X710532D01*
X708661Y30610D02*
Y34350D01*
X679232Y32480D02*
X682972D01*
X681102Y30610D02*
Y34350D01*
X720571Y32480D02*
X724311D01*
X722441Y30610D02*
X722441Y34350D01*
X821752Y258661D02*
X825492D01*
X823622Y256791D02*
Y260531D01*
X479331Y185039D02*
X483268D01*
X481299Y183071D02*
Y187008D01*
X471555Y182087D02*
X475295Y182087D01*
X473425Y180217D02*
Y183957D01*
X454823Y32480D02*
X458563D01*
X456693Y30610D02*
Y34350D01*
X441043Y14764D02*
X444783D01*
X442913Y12894D02*
Y16634D01*
X461713Y32480D02*
X465453D01*
X463583Y30610D02*
Y34350D01*
X447933Y32480D02*
X451673D01*
X449803Y30610D02*
Y34350D01*
X427264Y32480D02*
X431004D01*
X429134Y30610D02*
Y34350D01*
X468602Y32480D02*
X472342D01*
X470472Y30610D02*
Y34350D01*
X448819Y14764D02*
X452756D01*
X450787Y12795D02*
Y16732D01*
X434154Y32480D02*
X437894D01*
X436024Y30610D02*
Y34350D01*
X441043Y32480D02*
X444783D01*
X442913Y30610D02*
Y34350D01*
X733268Y183071D02*
Y187008D01*
X731299Y185039D02*
X735236D01*
X478543Y149803D02*
X481102Y152362D01*
X478543D02*
X497835D01*
Y137008D02*
Y152362D01*
X478543Y137008D02*
X497835D01*
X478543D02*
Y152362D01*
X436024Y12894D02*
Y16634D01*
X434154Y14764D02*
X437894D01*
X40846Y322047D02*
X44587D01*
X42717Y320177D02*
Y323917D01*
D122*
X250512Y387205D02*
X250512Y354528D01*
X250512Y387205D02*
X300669D01*
X250512Y354528D02*
X300669D01*
Y387205D01*
X722441Y187992D02*
X728346Y187992D01*
Y176181D02*
Y187992D01*
X722441Y176181D02*
Y187992D01*
Y176181D02*
X728346Y176181D01*
X347441Y162205D02*
X353346Y162205D01*
Y150394D02*
Y162205D01*
X347441Y150394D02*
Y162205D01*
Y150394D02*
X353346Y150394D01*
X347441Y156693D02*
X353346Y156693D01*
X347441Y168504D02*
X347441Y156693D01*
X353346Y156693D02*
Y168504D01*
X347441Y168504D02*
X353346Y168504D01*
X341535D02*
X347441D01*
Y156693D02*
Y168504D01*
X341535Y156693D02*
Y168504D01*
Y156693D02*
X347441D01*
X341535Y162205D02*
X347441D01*
Y150394D02*
Y162205D01*
X341535Y150394D02*
Y162205D01*
Y150394D02*
X347441D01*
X364173Y168504D02*
X370079Y168504D01*
X370079Y156693D02*
X370079Y168504D01*
X364173Y156693D02*
Y168504D01*
Y156693D02*
X370079Y156693D01*
X364173Y162205D02*
X370079Y162205D01*
Y150394D02*
Y162205D01*
X364173Y150394D02*
Y162205D01*
Y150394D02*
X370079Y150394D01*
X370079Y162205D02*
X375984Y162205D01*
Y150394D02*
Y162205D01*
X370079Y150394D02*
Y162205D01*
Y150394D02*
X375984Y150394D01*
X370079Y156693D02*
X375984Y156693D01*
X370079Y156693D02*
Y168504D01*
X375984Y156693D02*
Y168504D01*
X370079Y168504D02*
X375984Y168504D01*
X378150Y156693D02*
X384055Y156693D01*
X378150Y156693D02*
Y168504D01*
X384055Y156693D02*
Y168504D01*
X378150Y168504D02*
X384055Y168504D01*
X331693Y210236D02*
X337598Y210236D01*
Y198425D02*
Y210236D01*
X331693Y198425D02*
Y210236D01*
Y198425D02*
X337598D01*
X339567Y210236D02*
X345472Y210236D01*
Y198425D02*
Y210236D01*
X339567Y198425D02*
Y210236D01*
Y198425D02*
X345472D01*
X347835Y198425D02*
X353740Y198425D01*
X347835Y198425D02*
X347835Y210236D01*
X353740Y198425D02*
Y210236D01*
X347835D02*
X353740D01*
X348130Y192323D02*
X359744D01*
X348130Y198228D02*
X359744D01*
X348130Y192323D02*
Y198228D01*
X359744Y192323D02*
Y198228D01*
X354134Y198425D02*
X360039Y198425D01*
X354134Y198425D02*
Y210236D01*
X360039Y198425D02*
Y210236D01*
X354134Y210236D02*
X360039Y210236D01*
X371063Y176870D02*
Y188484D01*
X376969D02*
X376969Y176870D01*
X371063Y188484D02*
X376969D01*
X371063Y176870D02*
X376969Y176870D01*
X377362Y188583D02*
X384842Y188583D01*
X384842Y175197D02*
X384842Y188583D01*
X377362Y175197D02*
Y188583D01*
Y175197D02*
X384842D01*
X501968Y162402D02*
X507874Y162402D01*
X501968Y162402D02*
Y174213D01*
X507874Y162402D02*
Y174213D01*
X501968Y174213D02*
X507874Y174213D01*
X494095Y174213D02*
X500000Y174213D01*
X500000Y162402D02*
X500000Y174213D01*
X494095Y162402D02*
Y174213D01*
Y162402D02*
X500000Y162402D01*
X486221Y174213D02*
X492126Y174213D01*
Y162402D02*
Y174213D01*
X486221Y162402D02*
Y174213D01*
Y162402D02*
X492126D01*
X478346D02*
X484252Y162402D01*
X478346Y162402D02*
Y174213D01*
X484252Y162402D02*
Y174213D01*
X478346D02*
X484252D01*
X730315Y174213D02*
X736221Y174213D01*
Y162402D02*
Y174213D01*
X730315Y162402D02*
Y174213D01*
Y162402D02*
X736221Y162402D01*
X738189Y162402D02*
X744095D01*
X738189D02*
Y174213D01*
X744095Y162402D02*
Y174213D01*
X738189Y174213D02*
X744095Y174213D01*
X746063Y162402D02*
X751968Y162402D01*
X746063Y162402D02*
Y174213D01*
X751968Y162402D02*
Y174213D01*
X746063Y174213D02*
X751968Y174213D01*
X753937D02*
X759842Y174213D01*
Y162402D02*
Y174213D01*
X753937Y162402D02*
Y174213D01*
Y162402D02*
X759842Y162402D01*
X470472Y162402D02*
X476378D01*
X470472D02*
Y174213D01*
X476378Y162402D02*
Y174213D01*
X470472D02*
X476378D01*
X722441D02*
X728346D01*
Y162402D02*
Y174213D01*
X722441D02*
X722441Y162402D01*
X728346Y162402D01*
X486221Y187992D02*
X492126Y187992D01*
Y176181D02*
Y187992D01*
X486221Y176181D02*
Y187992D01*
Y176181D02*
X492126Y176181D01*
X500000Y176279D02*
Y187894D01*
X494095Y176279D02*
Y187894D01*
Y176279D02*
X500000D01*
X494095Y187894D02*
X500000D01*
X501968Y187992D02*
X507874D01*
Y176181D02*
Y187992D01*
X501968Y176181D02*
Y187992D01*
Y176181D02*
X507874Y176181D01*
X738189D02*
X744095Y176181D01*
X738189Y176181D02*
Y187992D01*
X744095Y176181D02*
Y187992D01*
X738189Y187992D02*
X744095Y187992D01*
X746063Y187894D02*
X751968D01*
X746063Y176279D02*
X751968D01*
X746063D02*
Y187894D01*
X751968Y176279D02*
Y187894D01*
X753937Y176181D02*
X759842D01*
X753937D02*
Y187992D01*
X759842Y176181D02*
Y187992D01*
X753937Y187992D02*
X759842Y187992D01*
X763681Y151575D02*
Y157480D01*
X752067D02*
X752067Y151575D01*
X752067Y157480D02*
X763681D01*
X752067Y151575D02*
X763681D01*
X500098Y151575D02*
X511713D01*
X500098Y157480D02*
X511713D01*
X500098Y151575D02*
Y157480D01*
X511713Y151575D02*
Y157480D01*
X465945Y130610D02*
X471850D01*
X465945Y118996D02*
X471850D01*
X465945D02*
Y130610D01*
X471850Y118996D02*
Y130610D01*
X477461Y125000D02*
X489075D01*
X477461Y119095D02*
X489075D01*
Y125000D01*
X477461Y119095D02*
Y125000D01*
X492913Y109843D02*
Y118504D01*
X475591Y109843D02*
Y118504D01*
X492913D01*
X475591Y109843D02*
X492913D01*
X500032Y76378D02*
X505937Y76378D01*
Y64567D02*
Y76378D01*
X500032Y64567D02*
Y76378D01*
Y64567D02*
X505937D01*
X500032Y89370D02*
X505937Y89370D01*
Y77559D02*
Y89370D01*
X500032Y77559D02*
Y89370D01*
Y77559D02*
X505937Y77559D01*
X513386Y90354D02*
X522047D01*
X513386Y73032D02*
X522047D01*
X513386D02*
Y90354D01*
X522047Y73032D02*
Y90354D01*
X489795Y82776D02*
X498457D01*
X489795Y65453D02*
X498457D01*
X489795D02*
Y82776D01*
X498457Y65453D02*
Y82776D01*
X482283Y77854D02*
Y89468D01*
X488189Y77854D02*
Y89468D01*
X482283D02*
X488189D01*
X482283Y77854D02*
X488189D01*
X468602Y83268D02*
X480217D01*
X468602Y77362D02*
X480217D01*
Y83268D01*
X468602Y77362D02*
Y83268D01*
X479331Y46358D02*
Y57972D01*
X485236Y46358D02*
Y57972D01*
X479331D02*
X485236D01*
X479331Y46358D02*
X485236D01*
X731299D02*
X737205D01*
X731299Y57972D02*
X737205D01*
Y46358D02*
Y57972D01*
X731299Y46358D02*
Y57972D01*
X752000Y64567D02*
X757905Y64567D01*
X752000Y64567D02*
Y76378D01*
X757905Y64567D02*
Y76378D01*
X752000Y76378D02*
X757905Y76378D01*
X752000Y77559D02*
X757905D01*
X752000D02*
Y89370D01*
X757905Y77559D02*
Y89370D01*
X752000Y89370D02*
X757905Y89370D01*
X774016Y73032D02*
Y90354D01*
X765354Y73032D02*
Y90354D01*
Y73032D02*
X774016D01*
X765354Y90354D02*
X774016D01*
X719783Y77362D02*
Y83268D01*
X731398Y77362D02*
Y83268D01*
X719783Y77362D02*
X731398D01*
X719783Y83268D02*
X731398D01*
X741764Y65453D02*
X741764Y82776D01*
X750425D02*
X750425Y65453D01*
X741764Y82776D02*
X750425D01*
X741764Y65453D02*
X750425D01*
X734252Y77658D02*
X740158D01*
X734252Y89272D02*
X740158D01*
Y77658D02*
Y89272D01*
X734252Y77658D02*
Y89272D01*
X729429Y119095D02*
Y125000D01*
X741043Y119095D02*
Y125000D01*
X729429Y119095D02*
X741043D01*
X729429Y125000D02*
X741043D01*
X727559Y109843D02*
X744882D01*
X727559Y118504D02*
X744882D01*
X727559Y109843D02*
Y118504D01*
X744882Y109843D02*
Y118504D01*
X618513Y122215D02*
Y139538D01*
X609851Y122215D02*
Y139538D01*
Y122215D02*
X618513D01*
X609851Y139538D02*
X618513D01*
X618504Y89764D02*
Y107087D01*
X609842Y89764D02*
Y107087D01*
Y89764D02*
X618504D01*
X609842Y107087D02*
X618504D01*
X619095Y85630D02*
X625000Y85630D01*
X619095Y85630D02*
Y97441D01*
X625000Y85630D02*
X625000Y97441D01*
X619095Y97441D02*
X625000Y97441D01*
X619095Y99409D02*
X625000Y99409D01*
X619095Y99409D02*
Y111221D01*
X625000Y99409D02*
Y111221D01*
X619095D02*
X625000D01*
X619103Y118081D02*
X625009Y118081D01*
X619103Y118081D02*
Y129892D01*
X625009Y118081D02*
Y129892D01*
X619103Y129892D02*
X625009Y129892D01*
X619095Y131693D02*
X625000Y131693D01*
X619095Y131693D02*
Y143504D01*
X625000Y131693D02*
Y143504D01*
X619095Y143504D02*
X625000Y143504D01*
X639370Y100886D02*
Y118209D01*
X648032Y100886D02*
Y118209D01*
X639370D02*
X648032D01*
X639370Y100886D02*
X648032D01*
X638189Y112106D02*
Y129429D01*
X629528Y112106D02*
Y129429D01*
Y112106D02*
X638189D01*
X629528Y129429D02*
X638189D01*
X562008Y81693D02*
X567913Y81693D01*
X562008Y81693D02*
Y93504D01*
X567913Y81693D02*
Y93504D01*
X562008Y93504D02*
X567913Y93504D01*
X562008Y95472D02*
X567913Y95472D01*
X562008Y95472D02*
Y107283D01*
X567913Y95472D02*
Y107283D01*
X562008Y107283D02*
X567913Y107283D01*
X577165Y85827D02*
Y103150D01*
X568504Y85827D02*
Y103150D01*
Y85827D02*
X577165D01*
X568504Y103150D02*
X577165D01*
X762598Y58071D02*
Y63976D01*
X774409D01*
X762598Y58071D02*
X774409D01*
Y63976D01*
X762598D02*
Y69882D01*
X774409D01*
X762598Y63976D02*
X774409D01*
Y69882D01*
X636614Y58071D02*
Y63976D01*
X648425Y63976D01*
X636614Y58071D02*
X648425D01*
X648425Y63976D02*
X648425Y58071D01*
X636614Y63976D02*
Y69882D01*
X648425Y69882D01*
X636614Y63976D02*
X648425D01*
Y69882D01*
X396457Y58071D02*
Y63976D01*
X384646Y58071D02*
X396457D01*
X384646Y63976D02*
X396457D01*
X384646Y58071D02*
Y63976D01*
X396457D02*
Y69882D01*
X384646Y63976D02*
X396457D01*
X384646Y69882D02*
X396457D01*
X384646Y63976D02*
Y69882D01*
X522441Y63976D02*
X522441Y58071D01*
X510630D02*
X522441D01*
X510630Y63976D02*
X522441D01*
X510630Y58071D02*
X510630Y63976D01*
X522441Y63976D02*
X522441Y69882D01*
X510630Y63976D02*
X522441D01*
X510630Y69882D02*
X522441D01*
X510630D02*
X510630Y63976D01*
X357874Y139370D02*
X366535D01*
X357874Y122047D02*
X366535D01*
X357874D02*
Y139370D01*
X366535Y122047D02*
Y139370D01*
X357874Y107087D02*
X366535D01*
X357874Y89764D02*
X366535D01*
X357874D02*
Y107087D01*
X366535Y89764D02*
Y107087D01*
X367126Y97441D02*
X373031Y97441D01*
Y85630D02*
Y97441D01*
X367126Y85630D02*
Y97441D01*
Y85630D02*
X373031Y85630D01*
X367126Y111221D02*
X373031Y111221D01*
Y99409D02*
Y111221D01*
X367126Y99410D02*
Y111221D01*
Y99410D02*
X373031Y99409D01*
X367126Y129724D02*
X373031Y129724D01*
Y117913D02*
Y129724D01*
X367126Y117913D02*
Y129724D01*
Y117913D02*
X373031D01*
X367126Y143504D02*
X373031Y143504D01*
Y131693D02*
Y143504D01*
X367126Y131693D02*
Y143504D01*
Y131693D02*
X373031Y131693D01*
X377559Y129429D02*
X386221D01*
X377559Y112106D02*
X386221D01*
X377559D02*
Y129429D01*
X386221Y112106D02*
Y129429D01*
X387402Y100886D02*
X396063D01*
X387402Y118209D02*
X396063D01*
Y100886D02*
Y118209D01*
X387402Y100886D02*
Y118209D01*
X436024Y123327D02*
X441929D01*
X436024Y134941D02*
X441929D01*
Y123327D02*
Y134941D01*
X436024Y123327D02*
Y134941D01*
X442520Y118504D02*
Y135827D01*
X451181Y118504D02*
Y135827D01*
X442520D02*
X451181D01*
X442520Y118504D02*
X451181D01*
X451772Y123327D02*
X457677D01*
X451772Y134941D02*
X457677D01*
Y123327D02*
Y134941D01*
X451772Y123327D02*
Y134941D01*
X562008Y122539D02*
X567913D01*
X562008Y134153D02*
X567913D01*
Y122539D02*
Y134153D01*
X562008Y122539D02*
Y134153D01*
X568504Y117717D02*
Y135039D01*
X577165Y117717D02*
Y135039D01*
X568504D02*
X577165D01*
X568504Y117717D02*
X577165D01*
X577756Y122539D02*
X583661D01*
X577756Y134153D02*
X583661D01*
Y122539D02*
Y134153D01*
X577756Y122539D02*
Y134153D01*
X688740Y122933D02*
Y134547D01*
X694646Y122933D02*
Y134547D01*
X688740D02*
X694646D01*
X688740Y122933D02*
X694646D01*
X695236Y118110D02*
X703898D01*
X695236Y135433D02*
X703898D01*
Y118110D02*
Y135433D01*
X695236Y118110D02*
Y135433D01*
X704488Y122933D02*
Y134547D01*
X710394Y122933D02*
Y134547D01*
X704488D02*
X710394D01*
X704488Y122933D02*
X710394D01*
X724213Y118602D02*
Y130217D01*
X718307Y118602D02*
Y130217D01*
Y118602D02*
X724213D01*
X718307Y130217D02*
X724213D01*
X436024Y148819D02*
X441929D01*
Y137008D02*
Y148819D01*
X436024Y137008D02*
Y148819D01*
Y137008D02*
X441929D01*
X443898Y148819D02*
X449803Y148819D01*
Y137008D02*
Y148819D01*
X443898Y137008D02*
Y148819D01*
Y137008D02*
X449803D01*
X458858Y149606D02*
X466338D01*
Y136220D02*
Y149606D01*
X458858Y136220D02*
Y149606D01*
Y136220D02*
X466338D01*
X451772Y148819D02*
X457677Y148819D01*
Y137008D02*
Y148819D01*
X451772Y137008D02*
Y148819D01*
Y137008D02*
X457677D01*
X562008Y148031D02*
X567913D01*
Y136221D02*
Y148031D01*
X562008Y136221D02*
Y148031D01*
Y136221D02*
X567913D01*
X569882Y148031D02*
X575787D01*
Y136221D02*
Y148031D01*
X569882Y136221D02*
Y148031D01*
Y136221D02*
X575787D01*
X577756Y148031D02*
X583661D01*
Y136221D02*
Y148031D01*
X577756Y136221D02*
Y148031D01*
Y136221D02*
X583661D01*
X584842Y148819D02*
X592322D01*
Y135433D02*
Y148819D01*
X584842Y135433D02*
Y148819D01*
Y135433D02*
X592322D01*
X688740Y136614D02*
X694646D01*
X688740D02*
Y148425D01*
X694646Y136614D02*
Y148425D01*
X688740D02*
X694646D01*
X696614Y136614D02*
X702520D01*
X696614D02*
Y148425D01*
X702520Y136614D02*
Y148425D01*
X696614D02*
X702520D01*
X704488Y136614D02*
X710394D01*
X704488D02*
Y148425D01*
X710394Y136614D02*
Y148425D01*
X704488D02*
X710394D01*
X711575Y135826D02*
X719055D01*
X711575D02*
Y149212D01*
X719055Y135826D02*
Y149212D01*
X711575D02*
X719055D01*
X591142Y164075D02*
X604921D01*
X591142Y179232D02*
X604921D01*
Y164075D02*
Y179232D01*
X591142Y164075D02*
Y179232D01*
X592224Y156890D02*
Y162795D01*
X603839Y156890D02*
Y162795D01*
X592224Y156890D02*
X603839D01*
X592224Y162795D02*
X603839D01*
X390748Y195177D02*
X396654D01*
X390748Y183563D02*
X396654D01*
X390748D02*
Y195177D01*
X396654Y183563D02*
Y195177D01*
X467126Y189862D02*
Y201476D01*
X473032Y189862D02*
Y201476D01*
X467126D02*
X473032D01*
X467126Y189862D02*
X473032D01*
X516732Y195177D02*
X522638D01*
X516732Y183563D02*
X522638D01*
X516732D02*
Y195177D01*
X522638Y183563D02*
Y195177D01*
X596654Y189075D02*
Y200689D01*
X602559Y189075D02*
Y200689D01*
X596654D02*
X602559D01*
X596654Y189075D02*
X602559D01*
X648622Y183563D02*
Y195177D01*
X642717Y183563D02*
Y195177D01*
Y183563D02*
X648622D01*
X642717Y195177D02*
X648622D01*
X420079Y74159D02*
Y80065D01*
X431890D01*
X420079Y74159D02*
X431890D01*
Y80065D01*
X420079Y85076D02*
Y90981D01*
X431890D01*
X420079Y85076D02*
X431890D01*
Y90981D01*
X431890Y95992D02*
Y101898D01*
X420079Y95992D02*
X431890D01*
X420079Y101898D02*
X431890D01*
X420079Y95992D02*
Y101898D01*
X420079Y106909D02*
Y112814D01*
X431890D01*
X420079Y106909D02*
X431890D01*
Y112814D01*
X420079Y117825D02*
Y123731D01*
X431890D01*
X420079Y117825D02*
X431890D01*
Y123731D01*
X431890Y128742D02*
Y134647D01*
X420079Y128742D02*
X431890D01*
X420079Y134647D02*
X431890D01*
X420079Y128742D02*
Y134647D01*
Y139658D02*
Y145564D01*
X431890D01*
X420079Y139658D02*
X431890D01*
Y145564D01*
X546063Y74159D02*
Y80065D01*
X557874D01*
X546063Y74159D02*
X557874Y74159D01*
Y80065D01*
X546063Y85076D02*
X546063Y90981D01*
X557874D01*
X546063Y85076D02*
X557874Y85076D01*
Y90981D01*
X557874Y101898D02*
X557874Y95992D01*
X546063D02*
X557874D01*
X546063Y101898D02*
X557874D01*
X546063Y95992D02*
X546063Y101898D01*
X546063Y106909D02*
Y112814D01*
X557874D01*
X546063Y106909D02*
X557874Y106909D01*
X557874Y112814D02*
X557874Y106909D01*
X546063Y117825D02*
Y123731D01*
X557874D01*
X546063Y117825D02*
X557874D01*
X557874Y123731D01*
X557874Y128742D02*
Y134647D01*
X546063Y128742D02*
X557874D01*
X546063Y134647D02*
X557874D01*
X546063D02*
X546063Y128742D01*
X546063Y139658D02*
X546063Y145564D01*
X557874D01*
X546063Y139658D02*
X557874D01*
Y145564D01*
X683858Y74159D02*
Y80065D01*
X672047Y74159D02*
X683858Y74159D01*
X672047Y80065D02*
X683858D01*
X672047D02*
X672047Y74159D01*
X683858Y85076D02*
Y90981D01*
X672047Y85076D02*
X683858Y85076D01*
X672047Y90981D02*
X683858D01*
X672047D02*
X672047Y85076D01*
X683858Y95992D02*
Y101898D01*
X672047Y95992D02*
X683858D01*
X672047Y101898D02*
X683858D01*
X672047Y95992D02*
Y101898D01*
X683858Y106909D02*
X683858Y112814D01*
X672047Y106909D02*
X683858D01*
X672047Y112814D02*
X683858D01*
X672047Y106909D02*
Y112814D01*
X683858Y117825D02*
X683858Y123731D01*
X672047Y117825D02*
X683858D01*
X672047Y123731D02*
X683858D01*
X672047Y117825D02*
Y123731D01*
X672047Y134647D02*
X672047Y128742D01*
X672047Y134647D02*
X683858D01*
X672047Y128742D02*
X683858D01*
X683858Y134647D01*
X683858Y139658D02*
X683858Y145564D01*
X672047Y139658D02*
X683858D01*
X672047Y145564D02*
X683858D01*
X672047Y139658D02*
Y145564D01*
X813976Y117421D02*
X819882D01*
X813976Y129035D02*
X819882D01*
Y117421D02*
Y129035D01*
X813976Y117421D02*
Y129035D01*
X820472Y112598D02*
Y129921D01*
X829134Y112598D02*
Y129921D01*
X820472D02*
X829134D01*
X820472Y112598D02*
X829134D01*
X829724Y117421D02*
X835630D01*
X829724Y129035D02*
X835630D01*
Y117421D02*
Y129035D01*
X829724Y117421D02*
Y129035D01*
X813976Y107283D02*
X819882Y107283D01*
Y95472D02*
Y107283D01*
X813976Y95472D02*
Y107283D01*
Y95472D02*
X819882Y95472D01*
X820472Y103150D02*
X829134D01*
X820472Y85827D02*
X829134D01*
X820472D02*
Y103150D01*
X829134Y85827D02*
Y103150D01*
X813976Y93504D02*
X819882Y93504D01*
Y81693D02*
Y93504D01*
X813976Y81693D02*
Y93504D01*
Y81693D02*
X819882Y81693D01*
X809842Y74159D02*
Y80065D01*
X798032Y74159D02*
X809842D01*
X798032Y80065D02*
X809842D01*
X798032Y74159D02*
Y80065D01*
X809842Y85076D02*
Y90981D01*
X798032Y85076D02*
X809842D01*
X798032Y90981D02*
X809842D01*
X798032D02*
X798032Y85076D01*
X809842Y95992D02*
Y101898D01*
X798032Y95992D02*
X809842D01*
X798032Y101898D02*
X809842D01*
X798032Y95992D02*
Y101898D01*
X809842Y106909D02*
X809842Y112814D01*
X798032Y106909D02*
X809842D01*
X798032Y112814D02*
X809842D01*
X798032Y106909D02*
Y112814D01*
X809842Y117825D02*
Y123731D01*
X798032Y117825D02*
X809842Y117825D01*
X798032Y123731D02*
X809842D01*
X798032Y117825D02*
Y123731D01*
X798032Y134647D02*
X798032Y128742D01*
X798032Y134647D02*
X809842D01*
X798032Y128742D02*
X809842D01*
Y134647D01*
X809842Y139658D02*
X809842Y145564D01*
X798032Y139658D02*
X809842D01*
X798032Y145564D02*
X809842D01*
X798032Y139658D02*
Y145564D01*
X813976Y142913D02*
X819882D01*
Y131102D02*
Y142913D01*
X813976Y131102D02*
Y142913D01*
Y131102D02*
X819882D01*
X821850Y142913D02*
X827756D01*
Y131102D02*
Y142913D01*
X821850Y131102D02*
Y142913D01*
Y131102D02*
X827756D01*
X829724Y142913D02*
X835630D01*
Y131102D02*
Y142913D01*
X829724Y131102D02*
Y142913D01*
Y131102D02*
X835630D01*
X836811Y143701D02*
X844291D01*
Y130315D02*
Y143701D01*
X836811Y130315D02*
Y143701D01*
Y130315D02*
X844291D01*
X719488Y190059D02*
X725394D01*
X719488Y201673D02*
X725394D01*
Y190059D02*
Y201673D01*
X719488Y190059D02*
Y201673D01*
X768701Y195177D02*
X774606D01*
X768701Y183563D02*
X774606D01*
X768701D02*
Y195177D01*
X774606Y183563D02*
Y195177D01*
X122835Y332677D02*
Y338583D01*
X134646D01*
X122835Y332677D02*
X134646D01*
Y338583D01*
X107087Y332677D02*
Y338583D01*
X118898D01*
X107087Y332677D02*
X118898D01*
Y338583D01*
X91339Y332677D02*
Y338583D01*
X103150D01*
X91339Y332677D02*
X103150D01*
Y338583D01*
Y340551D02*
Y346457D01*
X91339Y340551D02*
X103150D01*
X91339Y346457D02*
X103150D01*
X91339Y340551D02*
Y346457D01*
X118898Y340551D02*
Y346457D01*
X107087Y340551D02*
X118898D01*
X107087Y346457D02*
X118898D01*
X107087Y340551D02*
Y346457D01*
X134646Y340551D02*
Y346457D01*
X122835Y340551D02*
X134646D01*
X122835Y346457D02*
X134646D01*
X122835Y340551D02*
Y346457D01*
X155315Y338583D02*
X155315Y332677D01*
X155315Y338583D02*
X167126D01*
X155315Y332677D02*
X167126D01*
Y338583D01*
Y340551D02*
Y346457D01*
X155315Y340551D02*
X167126D01*
X155315Y346457D02*
X167126Y346457D01*
X155315Y340551D02*
Y346457D01*
X154331Y340551D02*
Y346457D01*
X142520Y340551D02*
X154331D01*
X142520Y346457D02*
X154331D01*
X142520Y340551D02*
X142520Y346457D01*
Y338583D02*
X142520Y332677D01*
X142520Y338583D02*
X154331D01*
X142520Y332677D02*
X154331D01*
Y338583D01*
X55905Y332677D02*
Y338583D01*
X67716D01*
X55905Y332677D02*
X67716D01*
Y338583D01*
X71653Y332677D02*
Y338583D01*
X83465D01*
X71653Y332677D02*
X83465D01*
Y338583D01*
Y340551D02*
Y346457D01*
X71653Y340551D02*
X83465D01*
X71653Y346457D02*
X83465D01*
X71653Y340551D02*
Y346457D01*
X67716Y340551D02*
Y346457D01*
X55905Y340551D02*
X67716D01*
X55905Y346457D02*
X67716D01*
X55905Y340551D02*
Y346457D01*
X98917Y319882D02*
X98917Y313976D01*
X110531D02*
Y319882D01*
X98917Y313976D02*
X110531D01*
X98917Y319882D02*
X110531D01*
X98917Y326969D02*
X98917Y321063D01*
X110531Y321063D02*
Y326969D01*
X98917Y321063D02*
X110531Y321063D01*
X98917Y326969D02*
X110531D01*
X92323Y285433D02*
X92323Y279528D01*
X80512D02*
X92323D01*
X80512Y285433D02*
X92323D01*
X80512Y279528D02*
X80512Y285433D01*
X80512Y292323D02*
X80512Y286417D01*
X80512Y292323D02*
X92323D01*
X80512Y286417D02*
X92323D01*
X92323Y292323D01*
X92323Y299213D02*
X92323Y293307D01*
X80512D02*
X92323D01*
X80512Y299213D02*
X92323D01*
X80512Y293307D02*
X80512Y299213D01*
X92323Y306102D02*
X92323Y300197D01*
X80512D02*
X92323D01*
X80512Y306102D02*
X92323D01*
X80512Y300197D02*
X80512Y306102D01*
X92520Y312992D02*
X92520Y307087D01*
X80709D02*
X92520D01*
X80709Y312992D02*
X92520D01*
X80709Y307087D02*
X80709Y312992D01*
Y313976D02*
Y319882D01*
X92520Y319882D01*
X80709Y313976D02*
X92520D01*
X92520Y319882D01*
X69291Y305315D02*
Y311221D01*
X57480Y305315D02*
X69291D01*
X57480Y311221D02*
X69291D01*
X57480Y305315D02*
Y311221D01*
X69291Y317126D02*
X69291Y311221D01*
X57480D02*
X69291D01*
X57480Y317126D02*
X69291D01*
X57480Y311221D02*
X57480Y317126D01*
X26575Y187008D02*
X32480Y187008D01*
X26575Y187008D02*
Y198819D01*
X32480Y187008D02*
Y198819D01*
X26575Y198819D02*
X32480Y198819D01*
X34449Y187008D02*
X40354Y187008D01*
X34449Y187008D02*
Y198819D01*
X40354Y187008D02*
Y198819D01*
X34449D02*
X40354D01*
X42323Y187008D02*
X48228D01*
X42323D02*
Y198819D01*
X48228Y187008D02*
Y198819D01*
X42323Y198819D02*
X48228Y198819D01*
X49508Y186024D02*
Y199803D01*
X64665Y186024D02*
Y199803D01*
X49508Y186024D02*
X64665D01*
X49508Y199803D02*
X64665D01*
X65945Y187008D02*
X71850D01*
X65945D02*
Y198819D01*
X71850Y187008D02*
Y198819D01*
X65945Y198819D02*
X71850Y198819D01*
X77756Y187008D02*
X83661Y187008D01*
X77756Y187008D02*
Y198819D01*
X83661Y187008D02*
Y198819D01*
X77756Y198819D02*
X83661Y198819D01*
X89567Y187008D02*
X95472Y187008D01*
X89567Y187008D02*
Y198819D01*
X95472Y187008D02*
Y198819D01*
X89567Y198819D02*
X95472Y198819D01*
X111909Y199803D02*
X111909Y186024D01*
X96752Y199803D02*
X96752Y186024D01*
X96752Y199803D02*
X111909D01*
X96752Y186024D02*
X111909D01*
X113189Y187008D02*
X119095Y187008D01*
X113189Y187008D02*
Y198819D01*
X119095Y187008D02*
Y198819D01*
X113189Y198819D02*
X119095Y198819D01*
X121063D02*
X126969D01*
Y187008D02*
Y198819D01*
X121063Y187008D02*
Y198819D01*
Y187008D02*
X126969Y187008D01*
X143701Y197835D02*
X143701Y191929D01*
X131890D02*
X143701D01*
X131890Y197835D02*
X143701D01*
X131890Y191929D02*
Y197835D01*
X253937Y191929D02*
Y197835D01*
X242126Y191929D02*
X253937D01*
X242126Y197835D02*
X253937D01*
X242126Y191929D02*
Y197835D01*
X226378D02*
X226378Y191929D01*
X214567D02*
X226378D01*
X214567Y197835D02*
X226378D01*
X214567Y191929D02*
Y197835D01*
X198819D02*
X198819Y191929D01*
X187008D02*
X198819D01*
X187008Y197835D02*
X198819D01*
X187008Y191929D02*
X187008Y197835D01*
X171260D02*
X171260Y191929D01*
X159449D02*
X171260D01*
X159449Y197835D02*
X171260D01*
X159449Y191929D02*
Y197835D01*
X142717Y279134D02*
X148622D01*
Y267323D02*
Y279134D01*
X142717Y267323D02*
Y279134D01*
Y267323D02*
X148622D01*
X142717Y266339D02*
X148622Y266339D01*
X148622Y254528D01*
X142717Y254527D02*
Y266339D01*
Y254527D02*
X148622Y254528D01*
X151575Y266339D02*
X157480Y266339D01*
Y254528D02*
Y266339D01*
X151575Y254527D02*
Y266339D01*
Y254527D02*
X157480Y254528D01*
X151575Y279134D02*
X157480Y279134D01*
Y267323D02*
Y279134D01*
X151575Y267323D02*
Y279134D01*
Y267323D02*
X157480D01*
X181398Y256496D02*
X196555D01*
X181398Y270276D02*
X196555D01*
X181398Y256496D02*
Y270276D01*
X196555Y256496D02*
Y270276D01*
X183169Y276969D02*
X194783D01*
X183169Y271063D02*
X194783D01*
Y276969D01*
X183169Y271063D02*
Y276969D01*
X139764Y248031D02*
X139764Y242126D01*
X139764Y248031D02*
X151575D01*
X139764Y242126D02*
X151575D01*
X151575Y248031D01*
X138976Y241142D02*
Y249016D01*
X120866Y241142D02*
Y249016D01*
X138976D01*
X120866Y241142D02*
X138976D01*
X62402Y279724D02*
X68307Y279724D01*
X62402Y279724D02*
Y291535D01*
X68307Y279724D02*
Y291535D01*
X62402Y291535D02*
X68307Y291535D01*
Y279724D02*
X74213Y279724D01*
X68307Y279724D02*
Y291535D01*
X74213Y279724D02*
Y291535D01*
X68307Y291535D02*
X74213Y291535D01*
X68307Y297835D02*
X74213Y297835D01*
Y286024D02*
Y297835D01*
X68307Y286024D02*
Y297835D01*
Y286024D02*
X74213Y286024D01*
X62402D02*
X68307Y286024D01*
X62402Y286024D02*
Y297835D01*
X68307Y286024D02*
Y297835D01*
X62402Y297835D02*
X68307Y297835D01*
X46457Y286024D02*
X52362Y286024D01*
X46457Y286024D02*
Y297835D01*
X52362Y286024D02*
Y297835D01*
X46457D02*
X52362D01*
X52362D02*
X58268D01*
Y286024D02*
Y297835D01*
X52362Y286024D02*
Y297835D01*
Y286024D02*
X58268Y286024D01*
X52362Y279724D02*
X58268D01*
X52362D02*
Y291535D01*
X58268Y279724D02*
Y291535D01*
X52362Y291535D02*
X58268Y291535D01*
X46457Y279724D02*
X52362D01*
X46457D02*
Y291535D01*
X52362Y279724D02*
Y291535D01*
X46457Y291535D02*
X52362Y291535D01*
X40157Y295079D02*
X40157Y287598D01*
X26772D02*
X40157D01*
X26772Y295079D02*
X40157Y295079D01*
X26772Y287598D02*
X26772Y295079D01*
X26673Y295276D02*
X38287D01*
X26673Y301181D02*
X38287D01*
X26673Y295276D02*
Y301181D01*
X38287Y295276D02*
Y301181D01*
X9252Y305315D02*
X9252Y311221D01*
X21063Y311221D01*
X9252Y305315D02*
X21063D01*
Y311221D01*
X9252Y317126D02*
X9252Y311221D01*
X9252Y317126D02*
X21063D01*
X9252Y311221D02*
X21063Y311221D01*
Y317126D01*
Y305413D02*
X26969D01*
X21063Y317028D02*
X26969Y317028D01*
X26969Y305413D02*
X26969Y317028D01*
X21063Y305413D02*
Y317028D01*
X40157Y332677D02*
Y338583D01*
X51968D01*
X40157Y332677D02*
X51968D01*
Y338583D01*
Y340551D02*
Y346457D01*
X40157Y340551D02*
X51968D01*
X40157Y346457D02*
X51968D01*
X40157Y340551D02*
Y346457D01*
X128347Y321063D02*
X128347Y326969D01*
X140157D01*
X128347Y321063D02*
X140157D01*
X140157Y326969D02*
X140157Y321063D01*
X139961Y319882D02*
X139961Y313976D01*
X128150D02*
X139961D01*
X128150Y319882D02*
X139961D01*
X128150Y313976D02*
X128150Y319882D01*
X154724Y308071D02*
Y313976D01*
X166535D01*
X154724Y308071D02*
X166535D01*
Y313976D01*
X154724Y323819D02*
X154724Y317913D01*
X154724Y323819D02*
X166535D01*
X154724Y317913D02*
X166535D01*
X166535Y323819D01*
X13386Y279921D02*
X29921D01*
Y247638D02*
Y279921D01*
X13386Y247638D02*
Y279921D01*
Y247638D02*
X29921D01*
X78740Y373031D02*
X92126D01*
Y382874D01*
X78740Y373031D02*
Y382874D01*
X92126D01*
X129921Y373031D02*
X143307D01*
Y382874D01*
X129921Y373031D02*
Y382874D01*
X143307D01*
X181102Y373031D02*
X194488D01*
Y382874D01*
X181102Y373031D02*
Y382874D01*
X194488D01*
X233539Y373382D02*
X246925D01*
Y383224D01*
X233539Y373382D02*
Y383224D01*
X246925D01*
X194957Y366492D02*
X194957Y372398D01*
X206768D01*
X194957Y366492D02*
X206768D01*
X206768Y372398D02*
X206768Y366492D01*
X210705D02*
X210705Y372398D01*
X222516D01*
X210705Y366492D02*
X222516D01*
X222516Y372398D02*
X222516Y366492D01*
X226453D02*
X226453Y372398D01*
X238264D01*
X226453Y366492D02*
X238264D01*
X238264Y372398D02*
X238264Y366492D01*
X154331Y372047D02*
X154331Y366142D01*
X142520D02*
X154331D01*
X142520Y372047D02*
X154331D01*
X142520Y366142D02*
X142520Y372047D01*
X174016Y366142D02*
X174016Y372047D01*
X185827D01*
X174016Y366142D02*
X185827D01*
X185827Y372047D02*
X185827Y366142D01*
X158268D02*
X158268Y372047D01*
X170079D01*
X158268Y366142D02*
X170079D01*
X170079Y372047D02*
X170079Y366142D01*
X122835D02*
X122835Y372047D01*
X134646D01*
X122835Y366142D02*
X134646D01*
X134646Y372047D02*
X134646Y366142D01*
X107087D02*
X107087Y372047D01*
X118898D01*
X107087Y366142D02*
X118898D01*
X118898Y372047D02*
X118898Y366142D01*
X91339D02*
X91339Y372047D01*
X103150D01*
X91339Y366142D02*
X103150D01*
X103150Y372047D02*
X103150Y366142D01*
X24803Y365945D02*
X24803Y371850D01*
X36614D01*
X24803Y365945D02*
X36614D01*
X36614Y371850D02*
X36614Y365945D01*
X51968Y372047D02*
X51968Y366142D01*
X40157D02*
X51968D01*
X40157Y372047D02*
X51968D01*
X40157Y366142D02*
X40157Y372047D01*
X55905Y366142D02*
X55905Y372047D01*
X67716D01*
X55905Y366142D02*
X67716D01*
X67716Y372047D02*
X67716Y366142D01*
X71653D02*
X71653Y372047D01*
X83465D01*
X71653Y366142D02*
X83465D01*
X83465Y372047D02*
X83465Y366142D01*
X39173Y349705D02*
X52953D01*
X39173Y364862D02*
X52953D01*
Y349705D02*
Y364862D01*
X39173Y349705D02*
Y364862D01*
X54921Y349705D02*
X68701D01*
X54921Y364862D02*
X68701D01*
Y349705D02*
Y364862D01*
X54921Y349705D02*
Y364862D01*
X70669Y349705D02*
X84449D01*
X70669Y364862D02*
X84449D01*
Y349705D02*
Y364862D01*
X70669Y349705D02*
Y364862D01*
X90354Y349705D02*
X104134D01*
X90354Y364862D02*
X104134D01*
Y349705D02*
Y364862D01*
X90354Y349705D02*
Y364862D01*
X106102Y349705D02*
X119882D01*
X106102Y364862D02*
X119882D01*
Y349705D02*
Y364862D01*
X106102Y349705D02*
Y364862D01*
X121850Y349705D02*
X135630D01*
X121850Y364862D02*
X135630D01*
Y349705D02*
Y364862D01*
X121850Y349705D02*
Y364862D01*
X141535Y349705D02*
X155315D01*
X141535Y364862D02*
X155315D01*
Y349705D02*
Y364862D01*
X141535Y349705D02*
Y364862D01*
X157283Y349705D02*
X171063D01*
X157283Y364862D02*
X171063D01*
Y349705D02*
Y364862D01*
X157283Y349705D02*
Y364862D01*
X173031Y349705D02*
X186811D01*
X173031Y364862D02*
X186811D01*
Y349705D02*
Y364862D01*
X173031Y349705D02*
Y364862D01*
X193972Y350055D02*
X207752D01*
X193972Y365213D02*
X207752D01*
Y350055D02*
Y365213D01*
X193972Y350055D02*
Y365213D01*
X209720Y350055D02*
X223500D01*
X209720Y365213D02*
X223500D01*
Y350055D02*
Y365213D01*
X209720Y350055D02*
Y365213D01*
X225468Y350055D02*
X239248D01*
X225468Y365213D02*
X239248D01*
Y350055D02*
Y365213D01*
X225468Y350055D02*
Y365213D01*
X194957Y333028D02*
Y338933D01*
X206768D01*
X194957Y333028D02*
X206768D01*
Y338933D01*
X179921Y332677D02*
Y338583D01*
X191732D01*
X179921Y332677D02*
X191732Y332677D01*
Y338583D01*
Y346457D02*
X191732Y340551D01*
X179921D02*
X191732D01*
X179921Y346457D02*
X191732D01*
X179921Y340551D02*
Y346457D01*
X206768Y340902D02*
X206768Y346807D01*
X194957Y340902D02*
X206768D01*
X194957Y346807D02*
X206768D01*
X194957D02*
X194957Y340902D01*
X210705Y333028D02*
Y338933D01*
X222516D01*
X210705Y333028D02*
X222516D01*
Y338933D01*
Y340902D02*
Y346807D01*
X210705Y340902D02*
X222516D01*
X210705Y346807D02*
X222516D01*
X210705Y340902D02*
Y346807D01*
X238264Y340902D02*
Y346807D01*
X226453Y340902D02*
X238264D01*
X226453Y346807D02*
X238264D01*
X226453Y340902D02*
X226453Y346807D01*
Y333028D02*
Y338933D01*
X238264D01*
X226453Y333028D02*
X238264D01*
Y338933D01*
X223425Y306988D02*
X223425Y295374D01*
X217520D02*
X217520Y306988D01*
X217520Y295374D02*
X223425D01*
X217520Y306988D02*
X223425Y306988D01*
X226314Y297716D02*
X251905Y297716D01*
X226314Y297716D02*
Y323503D01*
X251905Y323503D01*
X251905Y297716D02*
X251905Y323503D01*
X254779Y297217D02*
Y303123D01*
X266590Y303123D01*
X254779Y297217D02*
X266590Y297217D01*
Y303123D01*
Y304177D02*
Y310082D01*
X254779Y304177D02*
X266590D01*
X254779Y310082D02*
X266590Y310082D01*
X254779Y310082D02*
X254779Y304177D01*
X254779Y311137D02*
Y317042D01*
X266590D01*
X254779Y311137D02*
X266590D01*
X266590Y317042D02*
X266590Y311137D01*
X266535Y317913D02*
X266535Y323819D01*
X254724Y317913D02*
X266535D01*
X254724Y323819D02*
X266535D01*
X254724Y317913D02*
Y323819D01*
X293504Y309547D02*
X299409D01*
X293504Y321161D02*
X299409D01*
Y309547D02*
Y321161D01*
X293504Y309547D02*
Y321161D01*
X765748Y339567D02*
X765748Y345472D01*
X777559D01*
X765748Y339567D02*
X777559D01*
X777559Y345472D02*
X777559Y339567D01*
X777559Y347441D02*
X777559Y353346D01*
X765748Y347441D02*
X777559D01*
X765748Y353346D02*
X777559D01*
X765748D02*
X765748Y347441D01*
X781496Y345472D02*
X781496Y339567D01*
X781496Y345472D02*
X793307D01*
X781496Y339567D02*
X793307D01*
X793307Y345472D02*
X793307Y339567D01*
X793307Y347441D02*
X793307Y353346D01*
X781496Y347441D02*
X793307D01*
X781496Y353346D02*
X793307D01*
X781496D02*
X781496Y347441D01*
X809055D02*
X809055Y353346D01*
X797244Y347441D02*
X809055D01*
X797244Y353346D02*
X809055D01*
X797244D02*
X797244Y347441D01*
X797244Y339567D02*
X797244Y345472D01*
X809055D01*
X797244Y339567D02*
X809055D01*
X809055Y345472D02*
X809055Y339567D01*
X683071Y347441D02*
Y353346D01*
X671260Y347441D02*
X683071D01*
X671260Y353346D02*
X683071D01*
X671260Y347441D02*
X671260Y353346D01*
X671260Y345472D02*
X671260Y339567D01*
X671260Y345472D02*
X683071Y345472D01*
X671260Y339567D02*
X683071D01*
Y345472D01*
X655512Y345472D02*
X655512Y339567D01*
X655512Y345472D02*
X667323D01*
X655512Y339567D02*
X667323D01*
Y345472D01*
Y353346D02*
X667323Y347441D01*
X655512D02*
X667323D01*
X655512Y353346D02*
X667323D01*
X655512Y347441D02*
Y353346D01*
X651575D02*
X651575Y347441D01*
X639764Y347441D02*
X651575Y347441D01*
X639764Y353346D02*
X651575D01*
X639764D02*
X639764Y347441D01*
X639764Y345472D02*
X639764Y339567D01*
X639764Y345472D02*
X651575D01*
X639764Y339567D02*
X651575D01*
Y345472D01*
X415356Y339567D02*
Y345472D01*
X403545Y339567D02*
X415356D01*
X403545Y345472D02*
X415356D01*
X403545D02*
X403545Y339567D01*
X399608D02*
Y345472D01*
X387797Y339567D02*
X399608D01*
X387797Y345472D02*
X399608D01*
X387797D02*
X387797Y339567D01*
Y347441D02*
Y353346D01*
X399608D01*
X387797Y347441D02*
X399608D01*
X399608Y353346D02*
X399608Y347441D01*
X403545D02*
Y353346D01*
X415356Y353346D01*
X403545Y347441D02*
X415356D01*
X415356Y353346D02*
X415356Y347441D01*
X419293D02*
Y353346D01*
X431105Y353346D01*
X419293Y347441D02*
X431105D01*
Y353346D01*
Y339567D02*
Y345472D01*
X419293Y339567D02*
X431105D01*
X419293Y345472D02*
X431105D01*
X419293Y339567D02*
Y345472D01*
X550421Y351378D02*
X550421Y345472D01*
X538610D02*
X550421D01*
X538610Y351378D02*
X550421D01*
X538610Y345472D02*
Y351378D01*
X538610Y343504D02*
X538610Y337598D01*
X538610Y343504D02*
X550421D01*
X538610Y337598D02*
X550421D01*
Y343504D01*
X522862D02*
X522862Y337598D01*
X522862Y343504D02*
X534673D01*
X522862Y337598D02*
X534673D01*
X534673Y343504D01*
X534673Y351378D02*
X534673Y345472D01*
X522862D02*
X534673D01*
X522862Y351378D02*
X534673D01*
X522862Y345472D02*
X522862Y351378D01*
X518925Y345472D02*
Y351378D01*
X507114Y345472D02*
X518925D01*
X507114Y351378D02*
X518925D01*
X507114Y345472D02*
X507114Y351378D01*
Y337598D02*
Y343504D01*
X518925D01*
X507114Y337598D02*
X518925D01*
X518925Y343504D01*
X456595Y299016D02*
X468209D01*
X456595Y304921D02*
X468209D01*
X456595Y299016D02*
Y304921D01*
X468209Y299016D02*
Y304921D01*
X456693Y291142D02*
X456693Y298622D01*
X470079Y298622D01*
X456693Y291142D02*
X470079D01*
X470079Y298622D02*
X470079Y291142D01*
X440945Y286934D02*
X446850D01*
X440945D02*
Y298745D01*
X446850Y286934D02*
X446850Y298745D01*
X440945Y298745D02*
X446850Y298745D01*
X446850Y286934D02*
X452756Y286934D01*
X446850Y286934D02*
X446850Y298745D01*
X452756Y286934D02*
Y298745D01*
X446850Y298745D02*
X452756Y298745D01*
X452658Y298745D02*
Y304651D01*
X441043Y298745D02*
Y304651D01*
X452658D01*
X441043Y298745D02*
X452658Y298745D01*
X431299Y292520D02*
X437205Y292520D01*
X431299Y292520D02*
Y304331D01*
X437205Y292520D02*
Y304331D01*
X431299Y304331D02*
X437205Y304331D01*
X485236Y312598D02*
X485236Y318504D01*
X497047Y318504D01*
X485236Y312598D02*
X497047D01*
X497047Y318504D01*
X485236Y312598D02*
X485236Y306693D01*
X485236Y312598D02*
X497047D01*
X485236Y306693D02*
X497047Y306693D01*
X497047Y312598D01*
X479921Y289764D02*
X485827Y289764D01*
X479921Y289764D02*
Y301575D01*
X485827Y289764D02*
Y301575D01*
X479921Y301575D02*
X485827Y301575D01*
X474016Y289764D02*
X479921D01*
X474016D02*
Y301575D01*
X479921Y289764D02*
Y301575D01*
X474016D02*
X479921D01*
X474016Y295276D02*
X479921Y295276D01*
X479921Y283465D02*
X479921Y295276D01*
X474016Y283465D02*
Y295276D01*
Y283465D02*
X479921D01*
X479921Y283465D02*
X485827D01*
X479921D02*
Y295276D01*
X485827Y283465D02*
X485827Y295276D01*
X479921Y295276D02*
X485827Y295276D01*
X497244Y295276D02*
X503150Y295276D01*
Y283465D02*
Y295276D01*
X497244Y283465D02*
Y295276D01*
Y283465D02*
X503150Y283465D01*
X491339Y283465D02*
X497244Y283465D01*
X491339Y283465D02*
Y295276D01*
X497244Y283465D02*
X497244Y295276D01*
X491339Y295276D02*
X497244Y295276D01*
X491339Y301575D02*
X497244Y301575D01*
X497244Y289764D01*
X491339D02*
Y301575D01*
Y289764D02*
X497244D01*
X497244Y301575D02*
X503150D01*
Y289764D02*
Y301575D01*
X497244Y289764D02*
Y301575D01*
Y289764D02*
X503150Y289764D01*
X462992Y282677D02*
X462992Y266142D01*
X430709D02*
X462992D01*
X430709Y282677D02*
X462992D01*
X430709Y266142D02*
Y282677D01*
X340158Y257480D02*
Y274016D01*
X372441D01*
X340158Y257480D02*
X372441D01*
Y274016D01*
X360827Y293504D02*
X360827Y300984D01*
X374213D01*
X360827Y293504D02*
X374213D01*
X374213Y300984D02*
X374213Y293504D01*
X360925Y301181D02*
X372539D01*
X360925Y307087D02*
X372539D01*
X360925Y301181D02*
Y307087D01*
X372539Y301181D02*
Y307087D01*
X356496Y300394D02*
Y307874D01*
X343110Y300394D02*
X356496Y300394D01*
X343110Y307874D02*
X356496D01*
X343110Y300394D02*
X343110Y307874D01*
X342717Y327559D02*
X350197Y327559D01*
Y314173D02*
Y327559D01*
X342717Y314173D02*
Y327559D01*
Y314173D02*
X350197D01*
X338779Y350591D02*
X346260Y350591D01*
X338779Y350591D02*
Y363976D01*
X346260Y350591D02*
Y363976D01*
X338779Y363976D02*
X346260Y363976D01*
X346654Y350591D02*
X354134Y350591D01*
X346654Y350591D02*
Y363976D01*
X354134Y350591D02*
Y363976D01*
X346654Y363976D02*
X354134Y363976D01*
X399608Y373031D02*
X399608Y378937D01*
X387797Y373031D02*
X399608D01*
X387797Y378937D02*
X399608D01*
X387797Y373031D02*
Y378937D01*
X403545Y373031D02*
X403545Y378937D01*
X415356D01*
X403545Y373031D02*
X415356D01*
Y378937D01*
X419293D02*
X419293Y373031D01*
X419293Y378937D02*
X431105D01*
X419293Y373031D02*
X431105D01*
Y378937D01*
X507114Y371063D02*
Y376968D01*
X518925D01*
X507114Y371063D02*
X518925D01*
Y376968D01*
X534673Y376968D02*
X534673Y371063D01*
X522862D02*
X534673D01*
X522862Y376968D02*
X534673D01*
X522862Y371063D02*
X522862Y376968D01*
X550421Y371063D02*
Y376968D01*
X538610Y371063D02*
X550421D01*
X538610Y376968D02*
X550421D01*
X538610Y371063D02*
X538610Y376968D01*
X639764Y373031D02*
X639764Y378937D01*
X651575D01*
X639764Y373031D02*
X651575Y373031D01*
X651575Y378937D02*
X651575Y373031D01*
X667323Y378937D02*
X667323Y373031D01*
X655512D02*
X667323D01*
X655512Y378937D02*
X667323Y378937D01*
X655512Y373031D02*
Y378937D01*
X683071Y378937D02*
X683071Y373031D01*
X671260D02*
X683071D01*
X671260Y378937D02*
X683071D01*
X671260Y373031D02*
Y378937D01*
X793307Y373031D02*
X793307Y378937D01*
X781496Y373031D02*
X793307D01*
X781496Y378937D02*
X793307Y378937D01*
X781496Y373031D02*
Y378937D01*
X765748Y373031D02*
X765748Y378937D01*
X777559D01*
X765748Y373031D02*
X777559D01*
X777559Y378937D02*
X777559Y373031D01*
X809055Y373031D02*
Y378937D01*
X797244Y373031D02*
X809055D01*
X797244Y378937D02*
X809055D01*
X797244D02*
X797244Y373031D01*
X418309Y356594D02*
X418309Y371752D01*
X432089Y356594D02*
Y371752D01*
X418309D02*
X432089D01*
X418309Y356594D02*
X432089D01*
X402561Y371752D02*
X402561Y356594D01*
X416341Y371752D02*
X416341Y356594D01*
X402561Y371752D02*
X416341D01*
X402561Y356594D02*
X416341Y356594D01*
X386813Y356594D02*
Y371752D01*
X400593D02*
X400593Y356594D01*
X386813Y371752D02*
X400593D01*
X386813Y356594D02*
X400593D01*
X537626Y354626D02*
X551405D01*
X537626Y369783D02*
X551405D01*
Y354626D02*
Y369783D01*
X537626Y354626D02*
Y369783D01*
X521877Y354626D02*
X535657D01*
X521877Y369783D02*
X535657D01*
Y354626D02*
Y369783D01*
X521877Y354626D02*
Y369783D01*
X506130Y354626D02*
X519909D01*
X506130Y369783D02*
X519909D01*
Y354626D02*
Y369783D01*
X506130Y354626D02*
Y369783D01*
X796260Y356594D02*
X810039D01*
X796260Y371752D02*
X810039D01*
Y356594D02*
Y371752D01*
X796260Y356594D02*
Y371752D01*
X780512Y356594D02*
X794291D01*
X780512Y371752D02*
X794291D01*
Y356594D02*
Y371752D01*
X780512Y356594D02*
Y371752D01*
X764764Y356594D02*
X778543D01*
X764764Y371752D02*
X778543D01*
Y356594D02*
Y371752D01*
X764764Y356594D02*
Y371752D01*
X670276Y356594D02*
X684055D01*
X670276Y371752D02*
X684055Y371752D01*
Y356594D02*
Y371752D01*
X670276Y356594D02*
Y371752D01*
X654528Y356594D02*
X668307D01*
X654528Y371752D02*
X668307Y371752D01*
X668307Y356594D01*
X654528D02*
Y371752D01*
X638779Y356594D02*
X652559D01*
X638779Y371752D02*
X652559D01*
Y356594D02*
Y371752D01*
X638779Y356594D02*
Y371752D01*
X697244Y311024D02*
X703150Y311024D01*
X697244Y311024D02*
Y322835D01*
X703150Y311024D02*
Y322835D01*
X697244Y322835D02*
X703150Y322835D01*
X707087Y311024D02*
X712992Y311024D01*
X707087Y311024D02*
Y322835D01*
X712992Y311024D02*
Y322835D01*
X707087D02*
X712992D01*
X716929Y311024D02*
X722835Y311024D01*
X716929Y322835D02*
X716929Y311024D01*
X722835Y311024D02*
Y322835D01*
X716929D02*
X722835D01*
X697244Y322835D02*
X703150Y322835D01*
X697244Y322835D02*
Y334646D01*
X703150Y322835D02*
Y334646D01*
X697244Y334646D02*
X703150Y334646D01*
X707087Y322835D02*
X712992D01*
X707087D02*
Y334646D01*
X712992Y322835D02*
Y334646D01*
X707087Y334646D02*
X712992Y334646D01*
X716929Y334646D02*
X722835Y334646D01*
Y322835D02*
Y334646D01*
X716929Y322835D02*
X716929Y334646D01*
X716929Y322835D02*
X722835Y322835D01*
X727756Y322933D02*
X733661D01*
X727756Y334547D02*
X733661D01*
Y322933D02*
Y334547D01*
X727756Y322933D02*
Y334547D01*
X734449Y322933D02*
X740354D01*
X734449Y334547D02*
X740354D01*
Y322933D02*
Y334547D01*
X734449Y322933D02*
Y334547D01*
X780020Y293898D02*
X791634D01*
X780020Y299803D02*
X791634D01*
X780020Y293898D02*
Y299803D01*
X791634Y293898D02*
Y299803D01*
X779035Y302165D02*
Y315945D01*
X794193Y302165D02*
Y315945D01*
X779035Y302165D02*
X794193D01*
X779035Y315945D02*
X794193D01*
X822638Y328740D02*
Y336614D01*
X840748D02*
X840748Y328740D01*
X822638Y328740D02*
X840748Y328740D01*
X822638Y336614D02*
X840748D01*
X822835Y315945D02*
X828740D01*
Y304134D02*
Y315945D01*
X822835Y304134D02*
Y315945D01*
Y304134D02*
X828740D01*
X812205Y277559D02*
Y292520D01*
X841339D01*
X812205Y277559D02*
X841339D01*
Y292520D01*
X822638Y296260D02*
Y304134D01*
X840748Y296260D02*
Y304134D01*
X822638Y296260D02*
X840748D01*
X822638Y304134D02*
X840748D01*
X829724Y304134D02*
X835630Y304134D01*
X829724Y304134D02*
Y315945D01*
X835630Y304134D02*
Y315945D01*
X829724D02*
X835630D01*
X822835Y317126D02*
X828740D01*
X822835D02*
Y328937D01*
X828740Y317126D02*
Y328937D01*
X822835Y328937D02*
X828740Y328937D01*
X744095Y345669D02*
X750000D01*
Y333858D02*
Y345669D01*
X744095Y333858D02*
X744095Y345669D01*
X744095Y333858D02*
X750000Y333858D01*
X750984Y345669D02*
X756890Y345669D01*
Y333858D02*
Y345669D01*
X750984Y333858D02*
Y345669D01*
Y333858D02*
X756890Y333858D01*
X622244Y320472D02*
X628150Y320472D01*
X628150Y308661D01*
X622244Y308661D02*
Y320472D01*
Y308661D02*
X628150Y308661D01*
X629101Y320436D02*
X635006Y320436D01*
X635006Y308625D02*
X635006Y320436D01*
X629101Y320436D02*
X629101Y308625D01*
X635006Y308625D01*
X636060Y308723D02*
X641966Y308723D01*
X636060Y320337D02*
X641966Y320337D01*
X641966Y308723D02*
X641966Y320337D01*
X636060Y308723D02*
Y320337D01*
X670669Y282283D02*
X676575Y282283D01*
X670669Y282283D02*
Y294094D01*
X676575Y282283D02*
X676575Y294094D01*
X670669D02*
X676575D01*
X118110Y352362D02*
X118110Y346457D01*
X129921D01*
X118110Y352362D02*
X129921D01*
X129921Y346457D02*
X129921Y352362D01*
X779232Y310827D02*
X790846D01*
X779232Y316732D02*
X790846D01*
Y310827D02*
Y316732D01*
X779232Y310827D02*
X779232Y316732D01*
X763028Y305392D02*
X767203Y301217D01*
X775555Y309568D01*
X763028Y305392D02*
X771379Y313744D01*
X775555Y309568D01*
X771379Y288618D02*
X775555Y292794D01*
X767203Y301146D02*
X775555Y292794D01*
X763028Y296970D02*
X771379Y288618D01*
X763028Y296970D02*
X767203Y301146D01*
X738583Y320079D02*
Y325984D01*
Y320079D02*
X750394Y320079D01*
X738583Y325984D02*
X750394D01*
X750394Y320079D01*
Y313189D02*
Y319094D01*
X738583D02*
X750394D01*
X738583Y313189D02*
X750394D01*
X738583Y319094D02*
X738583Y313189D01*
X722047Y290551D02*
X722047Y312205D01*
X751181Y290551D02*
X751181Y312205D01*
X722047D02*
X751181D01*
X722047Y290551D02*
X751181D01*
X707087Y293504D02*
X707087Y287598D01*
X718898D01*
X707087Y293504D02*
X718898D01*
X718898Y287598D02*
X718898Y293504D01*
X707087Y309252D02*
Y315158D01*
Y309252D02*
X718898D01*
X707087Y315158D02*
X718898D01*
X718898Y309252D02*
X718898Y315158D01*
X713976Y295571D02*
Y307185D01*
X719882Y307185D02*
X719882Y295571D01*
X713976Y295571D02*
X719882Y295571D01*
X713976Y307185D02*
X719882Y307185D01*
X706299Y308071D02*
X713779D01*
X706299Y294685D02*
Y308071D01*
X713779Y294685D02*
Y308071D01*
X706299Y294685D02*
X713779D01*
X639173Y322047D02*
X646654D01*
X646654Y335433D01*
X639173Y322047D02*
X639173Y335433D01*
X646654Y335433D01*
X632045Y323959D02*
X637950Y323959D01*
X632045Y335574D02*
X637950D01*
X632045Y323959D02*
Y335574D01*
X637950Y323959D02*
Y335574D01*
X619721Y375710D02*
X623896Y379886D01*
X619721Y375710D02*
X628072Y367358D01*
X623896Y379886D02*
X632248Y371534D01*
X628072Y367358D02*
X632248Y371534D01*
X622843Y362155D02*
X627018Y366331D01*
X614630Y370367D02*
X618806Y374543D01*
X614630Y370367D02*
X622843Y362155D01*
X618806Y374543D02*
X627018Y366331D01*
X617921Y357234D02*
X622097Y361409D01*
X609709Y365446D02*
X613885Y369622D01*
X609709Y365446D02*
X617921Y357234D01*
X613885Y369622D02*
X622097Y361409D01*
X578451Y364517D02*
X586664Y372730D01*
X582627Y360341D02*
X590840Y368554D01*
X578451Y364517D02*
X582627Y360341D01*
X586664Y372730D02*
X590840Y368554D01*
X597202Y372447D02*
X636733Y332916D01*
X557671Y332916D02*
X597202Y293385D01*
X636733Y332916D01*
X557671Y332916D02*
X597202Y372447D01*
X557013Y347030D02*
X562919Y347030D01*
X557013Y335416D02*
X562919Y335416D01*
X562919Y347030D02*
X562919Y335416D01*
X557013Y335416D02*
Y347030D01*
X549266Y347916D02*
X556746Y347916D01*
X549266Y347916D02*
X549266Y334530D01*
X556746D02*
X556746Y347916D01*
X549266Y334530D02*
X556746D01*
X581201Y299410D02*
X581201Y293504D01*
X592815Y299409D02*
X592815Y293504D01*
X581201Y299410D02*
X592815Y299409D01*
X581201Y293504D02*
X592815D01*
X380689Y320739D02*
Y342393D01*
X409823Y320739D02*
Y342393D01*
X380689D02*
X409823D01*
X380689Y320739D02*
X409823D01*
X397342Y349803D02*
X408957D01*
X397342Y355709D02*
X408957D01*
Y349803D02*
Y355709D01*
X397342Y349803D02*
Y355709D01*
Y342913D02*
X408957D01*
X397342Y348819D02*
X408957D01*
Y342913D02*
Y348819D01*
X397342Y342913D02*
Y348819D01*
X412008Y332087D02*
X417913Y332087D01*
Y343898D01*
X412008Y332087D02*
Y343898D01*
X417913Y343898D01*
X423228Y323819D02*
X423228Y317913D01*
X411417Y323819D02*
X423228D01*
X411417Y317913D02*
X423228D01*
X411417D02*
X411417Y323819D01*
X379527Y337992D02*
X379528Y343898D01*
X367717D02*
X379528D01*
X367717Y337992D02*
X379527D01*
X367717Y343898D02*
X367717Y337992D01*
X379527Y331102D02*
X379528Y337008D01*
X367717D02*
X379528D01*
X367717Y331102D02*
X379527D01*
X367717Y337008D02*
X367717Y331102D01*
X379527Y324213D02*
X379528Y330118D01*
X367717D02*
X379528D01*
X367717Y324213D02*
X379527D01*
X367717Y330118D02*
X367717Y324213D01*
X360531Y357480D02*
X375689D01*
X360531Y371260D02*
X375689D01*
X375689Y357480D02*
X375689Y371260D01*
X360531Y357480D02*
X360531Y371260D01*
X347441Y357480D02*
Y363386D01*
Y357480D02*
X359252D01*
X347441Y363386D02*
X359252D01*
X359252Y357480D01*
X347441Y365354D02*
X347441Y371260D01*
X347441Y365354D02*
X359252D01*
X347441Y371260D02*
X359252Y371260D01*
Y365354D02*
Y371260D01*
X402758Y373031D02*
X416144Y373031D01*
X402758Y373031D02*
Y382874D01*
X416144Y373031D02*
Y382874D01*
X402758Y382874D02*
X416144Y382874D01*
X528767D02*
X542153D01*
Y373031D02*
Y382874D01*
X528767Y373031D02*
Y382874D01*
Y373031D02*
X542153D01*
X654724Y373031D02*
X668110Y373031D01*
X654724Y373031D02*
Y382874D01*
X668110Y373031D02*
Y382874D01*
X654724D02*
X668110D01*
X780709Y382874D02*
X794095D01*
Y373031D02*
Y382874D01*
X780709Y373031D02*
Y382874D01*
Y373031D02*
X794095D01*
X622047Y138779D02*
Y144685D01*
X610236D02*
X622047D01*
X610236Y138779D02*
X622047D01*
X610236D02*
Y144685D01*
X748032Y119095D02*
X748032Y125000D01*
X736221D02*
X748032D01*
X736221Y119095D02*
X748032D01*
X736221D02*
Y125000D01*
X748032Y144685D02*
X748032Y138779D01*
X736221Y144685D02*
X748032D01*
X736220Y138779D02*
X748032D01*
X736220D02*
X736221Y144685D01*
X748032Y164370D02*
X748032Y158465D01*
X736221Y164370D02*
X748032D01*
X736220Y158465D02*
X748032D01*
X736220D02*
X736221Y164370D01*
X610236Y125000D02*
X610236Y119095D01*
X622047D01*
X610236Y125000D02*
X622047D01*
Y119095D02*
Y125000D01*
X622047Y158465D02*
Y164370D01*
X610236D02*
X622047D01*
X610236Y158465D02*
X622047D01*
X610236Y164370D02*
X610236Y158465D01*
X484055Y159152D02*
Y165057D01*
Y159152D02*
X495866D01*
X484055Y165057D02*
X495866D01*
X495866Y159152D01*
X484055Y139467D02*
X484055Y145372D01*
X484055Y139467D02*
X495866D01*
X484055Y145372D02*
X495866D01*
Y139467D02*
Y145372D01*
X484055Y119782D02*
X484055Y125687D01*
X484055Y119782D02*
X495866D01*
X484055Y125687D02*
X495866D01*
X495866Y119782D01*
X358268Y158465D02*
X358268Y164370D01*
X358268Y158465D02*
X370079Y158465D01*
X358268Y164370D02*
X370079D01*
X370079Y158465D01*
X358268Y138779D02*
Y144685D01*
Y138779D02*
X370079D01*
X358268Y144685D02*
X370079D01*
Y138779D02*
Y144685D01*
X358268Y119095D02*
X358268Y125000D01*
X358268Y119095D02*
X370079D01*
X358268Y125000D02*
X370079Y125000D01*
X370079Y119095D01*
X302165Y304134D02*
X308071Y304134D01*
Y315945D01*
X302165Y304134D02*
Y315945D01*
X308071Y315945D01*
X284449Y380315D02*
X290354D01*
X284449Y368504D02*
Y380315D01*
X290354Y368504D02*
Y380315D01*
X284449Y368504D02*
X290354D01*
X277559Y368504D02*
X283465Y368504D01*
Y380315D01*
X277559Y368504D02*
Y380315D01*
X283465Y380315D01*
X270669Y368504D02*
X276575Y368504D01*
Y380315D01*
X270669Y368504D02*
Y380315D01*
X276575Y380315D01*
X296063Y335630D02*
X296063Y341535D01*
X284252D02*
X296063D01*
X284252Y335630D02*
X296063Y335630D01*
X284252Y335630D02*
X284252Y341535D01*
X271457D02*
X271457Y335630D01*
X283268D01*
X271457Y341535D02*
X283268D01*
X283268Y335630D02*
X283268Y341535D01*
X240158Y355315D02*
X240158Y347835D01*
X253543D01*
X240158Y355315D02*
X253543D01*
Y347835D02*
Y355315D01*
X195010Y335109D02*
X200915Y335109D01*
Y346920D01*
X195010Y335109D02*
Y346920D01*
X200915Y346920D01*
X184547Y333819D02*
X301516D01*
X184547Y284850D02*
Y333819D01*
Y284850D02*
X301516D01*
Y333819D01*
X358957Y368307D02*
X374114D01*
X358957Y354528D02*
X374114D01*
Y368307D01*
X358957Y354528D02*
Y368307D01*
X360728Y369488D02*
X372342D01*
X360728Y375394D02*
X372342D01*
X360728Y369488D02*
Y375394D01*
X372342Y369488D02*
Y375394D01*
X738681Y283661D02*
X738681Y289567D01*
X750295Y283661D02*
Y289567D01*
X738681Y289567D02*
X750295Y289567D01*
X738681Y283661D02*
X750295Y283661D01*
X354390Y308268D02*
Y353937D01*
X382933Y308268D02*
Y353937D01*
X354390Y353937D02*
X382933Y353937D01*
X354390Y308268D02*
X382933D01*
X685039Y20571D02*
X690945Y20571D01*
X685039Y8957D02*
X690945D01*
X685039Y20571D02*
X685039Y8957D01*
X690945D02*
Y20571D01*
X685039Y38386D02*
X690945Y38386D01*
Y26575D02*
Y38386D01*
X685039Y26575D02*
Y38386D01*
Y26575D02*
X690945D01*
X698819Y38386D02*
X704724Y38386D01*
Y26575D02*
Y38386D01*
X698819Y26575D02*
X698819Y38386D01*
X698819Y26575D02*
X704724D01*
X691929Y38386D02*
X697835D01*
Y26575D02*
Y38386D01*
X691929Y26575D02*
Y38386D01*
Y26575D02*
X697835Y26575D01*
X691929Y20669D02*
X697835Y20669D01*
Y8858D02*
Y20669D01*
X691929Y8858D02*
Y20669D01*
Y8858D02*
X697835Y8858D01*
X698425Y6102D02*
Y23425D01*
X707087Y6102D02*
X707087Y23425D01*
X698425D02*
X707087D01*
X698425Y6102D02*
X707087Y6102D01*
X712598Y26575D02*
X718504Y26575D01*
X712598Y26575D02*
Y38386D01*
X718504Y26575D02*
Y38386D01*
X712598D02*
X718504D01*
X705709Y26575D02*
X711614D01*
X705709D02*
X705709Y38386D01*
X711614Y26575D02*
Y38386D01*
X705709D02*
X711614D01*
X678150Y26575D02*
X684055Y26575D01*
X678150Y26575D02*
Y38386D01*
X684055Y26575D02*
Y38386D01*
X678150D02*
X684055D01*
X719488Y26575D02*
X725394D01*
X719488D02*
Y38386D01*
X725394Y26575D02*
Y38386D01*
X719488Y38386D02*
X725394Y38386D01*
X826575Y252854D02*
Y264469D01*
X820669Y252854D02*
Y264469D01*
Y252854D02*
X826575D01*
X820669Y264469D02*
X826575D01*
X485630Y176378D02*
Y193701D01*
X476968Y176378D02*
Y193701D01*
Y176378D02*
X485630D01*
X476968Y193701D02*
X485630D01*
X470472Y187992D02*
X476378D01*
Y176181D02*
Y187992D01*
X470472Y176181D02*
Y187992D01*
Y176181D02*
X476378Y176181D01*
X453740Y26575D02*
X459646Y26575D01*
X453740Y26575D02*
Y38386D01*
X459646Y26575D02*
Y38386D01*
X453740Y38386D02*
X459646Y38386D01*
X439961Y20669D02*
X445866Y20669D01*
Y8858D02*
Y20669D01*
X439961Y8858D02*
Y20669D01*
Y8858D02*
X445866Y8858D01*
X460630Y26575D02*
X466535Y26575D01*
X460630Y26575D02*
Y38386D01*
X466535Y26575D02*
Y38386D01*
X460630Y38386D02*
X466535Y38386D01*
X446850Y38386D02*
X452756D01*
Y26575D02*
Y38386D01*
X446850Y26575D02*
Y38386D01*
Y26575D02*
X452756D01*
X426181D02*
X432087Y26575D01*
X426181Y26575D02*
Y38386D01*
X432087Y26575D02*
Y38386D01*
X426181Y38386D02*
X432087Y38386D01*
X467520Y26575D02*
X473425Y26575D01*
X467520Y26575D02*
Y38386D01*
X473425Y26575D02*
Y38386D01*
X467520Y38386D02*
X473425Y38386D01*
X446457Y6102D02*
Y23425D01*
X455118Y6102D02*
Y23425D01*
X446457D02*
X455118D01*
X446457Y6102D02*
X455118D01*
X433071Y38386D02*
X438976D01*
Y26575D02*
Y38386D01*
X433071Y26575D02*
Y38386D01*
Y26575D02*
X438976D01*
X439961Y38386D02*
X445866D01*
Y26575D02*
Y38386D01*
X439961Y26575D02*
Y38386D01*
Y26575D02*
X445866D01*
X728937Y193701D02*
X737598Y193701D01*
X728937Y176378D02*
X737598D01*
X728937D02*
X728937Y193701D01*
X737598Y176378D02*
Y193701D01*
X433071Y20571D02*
X438976D01*
X433071Y8957D02*
X438976D01*
X433071D02*
Y20571D01*
X438976Y8957D02*
Y20571D01*
X48622Y325000D02*
X48622Y319094D01*
X36811D02*
X48622D01*
X36811Y325000D02*
X48622D01*
X36811Y319094D02*
X36811Y325000D01*
D123*
X821732Y296496D02*
Y306496D01*
X811732Y296496D02*
X821732D01*
X811732D02*
Y306496D01*
X816732D01*
X821732D01*
Y316496D01*
X811732Y306496D02*
X821732D01*
X811732D02*
X811732Y316496D01*
X816732Y316496D01*
X821732Y316496D01*
X821732D02*
Y326496D01*
X811732Y316496D02*
X821732Y316496D01*
X811732Y316496D02*
Y326496D01*
X816732D01*
X821732Y326496D01*
X821732D02*
Y336496D01*
X811732Y326496D02*
X821732Y326496D01*
X811732Y336496D02*
X811732Y326496D01*
X811732Y336496D02*
X816732D01*
X821732D01*
M02*
