G04*
G04 #@! TF.GenerationSoftware,Altium Limited,Altium Designer,24.3.1 (35)*
G04*
G04 Layer_Color=16711935*
%FSLAX25Y25*%
%MOIN*%
G70*
G04*
G04 #@! TF.SameCoordinates,03FD84D8-87D8-4BCB-B200-23DCDFDCD728*
G04*
G04*
G04 #@! TF.FilePolarity,Positive*
G04*
G01*
G75*
%ADD17C,0.00394*%
D17*
X20472Y382482D02*
X19497Y382078D01*
X19093Y381102D01*
X19497Y380127D01*
X20472Y379723D01*
X26772D02*
X27747Y380127D01*
X28151Y381102D01*
X27747Y382078D01*
X26772Y382482D01*
X67716Y382482D02*
X66741Y382078D01*
X66337Y381102D01*
X66741Y380127D01*
X67716Y379723D01*
X74016D02*
X74991Y380127D01*
X75395Y381102D01*
X74991Y382078D01*
X74016Y382482D01*
X114961D02*
X113985Y382078D01*
X113581Y381102D01*
X113985Y380127D01*
X114961Y379723D01*
X121260D02*
X122235Y380127D01*
X122639Y381102D01*
X122235Y382078D01*
X121260Y382482D01*
X162205D02*
X161229Y382078D01*
X160825Y381102D01*
X161229Y380127D01*
X162205Y379723D01*
X168504D02*
X169479Y380127D01*
X169883Y381102D01*
X169479Y382078D01*
X168504Y382482D01*
X209449D02*
X208473Y382078D01*
X208069Y381102D01*
X208473Y380127D01*
X209449Y379723D01*
X215748D02*
X216723Y380127D01*
X217127Y381102D01*
X216723Y382078D01*
X215748Y382482D01*
X0Y196850D02*
X31Y195862D01*
X124Y194877D01*
X279Y193900D01*
X495Y192934D01*
X771Y191984D01*
X1106Y191053D01*
X1499Y190145D01*
X1948Y189264D01*
X2451Y188412D01*
X3008Y187594D01*
X3614Y186812D01*
X4268Y186070D01*
X4968Y185371D01*
X5710Y184716D01*
X6492Y184110D01*
X7310Y183554D01*
X8161Y183050D01*
X9043Y182601D01*
X9951Y182208D01*
X10882Y181873D01*
X11832Y181597D01*
X12797Y181381D01*
X13774Y181227D01*
X14759Y181133D01*
X15748Y181102D01*
X11811Y385827D02*
X10836Y385786D01*
X9867Y385666D01*
X8912Y385465D01*
X7976Y385187D01*
X7067Y384832D01*
X6190Y384403D01*
X5351Y383904D01*
X4557Y383336D01*
X3812Y382705D01*
X3121Y382015D01*
X2490Y381270D01*
X1923Y380476D01*
X1424Y379637D01*
X995Y378760D01*
X640Y377851D01*
X361Y376915D01*
X161Y375960D01*
X40Y374991D01*
X0Y374016D01*
X846457Y368110D02*
X846429Y369104D01*
X846345Y370094D01*
X846206Y371078D01*
X846012Y372053D01*
X845764Y373015D01*
X845463Y373962D01*
X845108Y374890D01*
X844702Y375797D01*
X844246Y376680D01*
X843741Y377536D01*
X843189Y378362D01*
X842591Y379156D01*
X841950Y379915D01*
X841268Y380638D01*
X840545Y381320D01*
X839786Y381961D01*
X838992Y382559D01*
X838166Y383111D01*
X837310Y383616D01*
X836427Y384072D01*
X835520Y384478D01*
X834592Y384833D01*
X833645Y385134D01*
X832683Y385383D01*
X831708Y385576D01*
X830724Y385715D01*
X829734Y385799D01*
X828740Y385827D01*
X830709Y0D02*
X831697Y31D01*
X832682Y124D01*
X833659Y279D01*
X834625Y495D01*
X835575Y771D01*
X836506Y1106D01*
X837414Y1499D01*
X838295Y1948D01*
X839147Y2451D01*
X839965Y3008D01*
X840747Y3614D01*
X841489Y4268D01*
X842188Y4968D01*
X842843Y5710D01*
X843449Y6492D01*
X844005Y7310D01*
X844509Y8161D01*
X844958Y9043D01*
X845351Y9951D01*
X845686Y10882D01*
X845962Y11832D01*
X846178Y12797D01*
X846332Y13774D01*
X846426Y14759D01*
X846457Y15748D01*
X334646D02*
X334677Y14759D01*
X334770Y13774D01*
X334925Y12797D01*
X335140Y11832D01*
X335416Y10882D01*
X335752Y9951D01*
X336144Y9043D01*
X336594Y8161D01*
X337097Y7310D01*
X337653Y6492D01*
X338260Y5710D01*
X338914Y4968D01*
X339613Y4268D01*
X340355Y3614D01*
X341137Y3008D01*
X341955Y2451D01*
X342807Y1948D01*
X343689Y1499D01*
X344596Y1106D01*
X345527Y771D01*
X346477Y495D01*
X347443Y279D01*
X348420Y124D01*
X349405Y31D01*
X350394Y0D01*
X334646Y177165D02*
X334511Y178184D01*
X334118Y179134D01*
X333492Y179949D01*
X332677Y180575D01*
X331728Y180968D01*
X330709Y181102D01*
X20472Y382482D02*
X26772D01*
X20472Y379723D02*
X26772D01*
X67716Y382482D02*
X74016D01*
X67716Y379723D02*
X74016D01*
X114961Y382482D02*
X121260D01*
X114961Y379723D02*
X121260D01*
X162205Y382482D02*
X168504D01*
X162205Y379723D02*
X168504Y379723D01*
X209449Y382482D02*
X215748D01*
X209449Y379723D02*
X215748D01*
X0Y196850D02*
Y374016D01*
X11811Y385827D02*
X828740D01*
X846457Y15748D02*
Y368110D01*
X350394Y-0D02*
X830709Y0D01*
X334646Y15748D02*
Y177165D01*
X15748Y181102D02*
X330709D01*
M02*
