G04*
G04 #@! TF.GenerationSoftware,Altium Limited,Altium Designer,24.3.1 (35)*
G04*
G04 Layer_Color=16711935*
%FSLAX25Y25*%
%MOIN*%
G70*
G04*
G04 #@! TF.SameCoordinates,03FD84D8-87D8-4BCB-B200-23DCDFDCD728*
G04*
G04*
G04 #@! TF.FilePolarity,Positive*
G04*
G01*
G75*
%ADD17C,0.00394*%
%ADD120C,0.00000*%
D17*
X60693Y361496D02*
X60573Y362485D01*
X60219Y363417D01*
X59653Y364237D01*
X58907Y364898D01*
X58025Y365361D01*
X57057Y365600D01*
X56061D01*
X55093Y365361D01*
X54211Y364898D01*
X53465Y364237D01*
X52899Y363417D01*
X52545Y362485D01*
X52425Y361496D01*
X52545Y360507D01*
X52899Y359575D01*
X53465Y358755D01*
X54211Y358094D01*
X55093Y357631D01*
X56061Y357392D01*
X57057D01*
X58025Y357631D01*
X58907Y358094D01*
X59653Y358755D01*
X60219Y359575D01*
X60573Y360507D01*
X60693Y361496D01*
X165024Y290630D02*
X164903Y291619D01*
X164550Y292551D01*
X163984Y293371D01*
X163238Y294032D01*
X162356Y294495D01*
X161388Y294734D01*
X160391D01*
X159424Y294495D01*
X158542Y294032D01*
X157796Y293371D01*
X157229Y292551D01*
X156876Y291619D01*
X156756Y290630D01*
X156876Y289641D01*
X157229Y288709D01*
X157796Y287889D01*
X158542Y287228D01*
X159424Y286765D01*
X160391Y286526D01*
X161388D01*
X162356Y286765D01*
X163238Y287228D01*
X163984Y287889D01*
X164550Y288709D01*
X164903Y289641D01*
X165024Y290630D01*
X60693Y290630D02*
X60573Y291619D01*
X60219Y292551D01*
X59653Y293371D01*
X58907Y294032D01*
X58025Y294495D01*
X57057Y294734D01*
X56061D01*
X55093Y294495D01*
X54211Y294032D01*
X53465Y293371D01*
X52899Y292551D01*
X52545Y291619D01*
X52425Y290630D01*
X52545Y289641D01*
X52899Y288709D01*
X53465Y287889D01*
X54211Y287228D01*
X55093Y286765D01*
X56061Y286526D01*
X57057D01*
X58025Y286765D01*
X58907Y287228D01*
X59653Y287889D01*
X60219Y288709D01*
X60573Y289641D01*
X60693Y290630D01*
D120*
X257402Y359845D02*
X257714Y358792D01*
X258679Y358268D01*
X258686Y358267D02*
X259553Y358557D01*
X259961Y359375D01*
X260548Y359843D02*
X259960Y359367D01*
X291221Y359367D02*
X290633Y359843D01*
X291220Y359375D02*
X291628Y358557D01*
X292495Y358267D01*
X292502Y358268D02*
X293467Y358792D01*
X293779Y359845D01*
X249921Y384252D02*
X257402Y384252D01*
Y359842D02*
Y384252D01*
X260551Y359842D02*
X290630D01*
X293779D02*
Y384252D01*
X300630Y384252D01*
M02*
